<svg width="796" height="216" viewBox="0 0 796 216" fill="none" xmlns="http://www.w3.org/2000/svg">
<g clip-path="url(#clip0_1137_653)">
<path d="M222 26H258.59C267.89 26 274.71 28.48 279.05 32.82C281.024 34.4993 282.602 36.5933 283.674 38.9527C284.746 41.3121 285.284 43.8788 285.25 46.47C285.351 48.556 285.143 50.6454 284.63 52.67C283.359 55.9255 281.444 58.8913 279 61.39C277.913 62.4253 276.654 63.2644 275.28 63.87C279.52 65.1553 283.362 67.5029 286.44 70.69C288.92 73.79 290.16 77.51 290.16 83.09C290.203 86.2865 289.569 89.456 288.3 92.39C286.752 95.0857 284.636 97.4128 282.1 99.21C279.126 100.916 276.016 102.371 272.8 103.56C269.08 104.8 264.74 104.8 260.4 104.8H222.61V26H222ZM255.49 58.25C258.681 58.2321 261.838 57.6006 264.79 56.39C265.929 55.8091 266.881 54.9198 267.539 53.8235C268.197 52.7273 268.533 51.4682 268.51 50.19C268.52 48.9852 268.244 47.7953 267.705 46.7176C267.166 45.64 266.38 44.7053 265.41 43.99C264.179 43.0804 262.768 42.4439 261.271 42.1232C259.774 41.8024 258.226 41.8047 256.73 42.13H239.36V58.91H255.48L255.49 58.25ZM259.83 89.87C263.021 89.8521 266.178 89.2206 269.13 88.01C270.359 87.4109 271.341 86.4023 271.907 85.1576C272.472 83.9129 272.587 82.5099 272.23 81.19V81.19C272.24 79.9852 271.964 78.7953 271.425 77.7176C270.886 76.64 270.1 75.7053 269.13 74.99C266.108 73.2823 262.68 72.4253 259.21 72.51H238.74V89.91L259.83 89.87Z" fill="white"/>
<path d="M311.91 26.04H329.27V105.42H311.91V26.04Z" fill="white"/>
<path d="M355.93 26.04H372.06L409.26 75.03V26.04H426.62V105.42H411.74L372.68 55.19V105.42H355.93V26.04Z" fill="white"/>
<path d="M479.33 25.42H495.45L529.56 105.42H511.56L504.12 87.42H470.65L463.21 105.42H445.21L479.33 25.42ZM497.94 72.55L487.39 46.55L476.85 72.55H497.94Z" fill="white"/>
<path d="M548.16 26.04H564.28L601.49 75.03V26.04H618.85V105.42H603.97L565.52 55.19V105.42H548.16V26.04Z" fill="white"/>
<path d="M682.1 106.66C676.585 106.589 671.127 105.54 665.98 103.56C656.227 99.3791 648.456 91.6052 644.28 81.85C642.3 76.7026 641.251 71.2445 641.18 65.73V65.73C641.351 54.8832 645.567 44.4912 653 36.59C656.661 32.796 661.094 29.8325 666 27.9C671.293 25.6792 677.002 24.622 682.74 24.8C686.059 24.6974 689.38 24.905 692.66 25.42C695.451 25.8705 698.167 26.705 700.73 27.9C703.073 29.0083 705.35 30.2504 707.55 31.62C709.765 33.0937 711.84 34.7674 713.75 36.62L703.21 49.62C700.26 47.1449 697.15 44.8666 693.9 42.8C690.675 41.0381 687.033 40.1812 683.36 40.32C680.169 40.3379 677.012 40.9694 674.06 42.18C671.108 43.309 668.53 45.242 666.62 47.76C664.597 50.2084 662.915 52.9198 661.62 55.82C660.409 58.7721 659.778 61.9294 659.76 65.12V65.12C659.787 68.4996 660.424 71.8466 661.64 75C662.697 78.0199 664.404 80.7712 666.64 83.06C668.738 85.4228 671.317 87.3093 674.204 88.5926C677.092 89.8758 680.22 90.5262 683.38 90.5C687.447 90.574 691.478 89.7261 695.17 88.02C698.516 86.1033 701.636 83.8155 704.47 81.2L715.63 92.36L709.43 98.56C707.093 100.242 704.602 101.698 701.99 102.91C699.239 104.314 696.318 105.356 693.3 106.01C689.6 106.493 685.87 106.7 682.14 106.63L682.1 106.66Z" fill="white"/>
<path d="M735.43 26.04H794.96V41.55H752.17V57.67H790V73.17H752.17V89.91H795.58V105.42H735.43V26.04Z" fill="white"/>
<path d="M244.32 183.55C240.051 183.688 235.807 182.84 231.92 181.07C228.19 179.83 224.47 177.35 220.75 174.25L226.95 167.43C229.43 169.91 231.95 171.15 235.02 173.01C237.972 174.221 241.129 174.852 244.32 174.87C246.912 174.843 249.46 174.205 251.76 173.01C252.572 172.463 253.227 171.715 253.662 170.838C254.097 169.962 254.296 168.987 254.24 168.01V168.01C254.332 167.136 254.112 166.258 253.62 165.53C253 164.9 252.38 163.66 251.76 163.04L248 161.22C246.14 160.6 243.66 159.98 241.8 159.36C239.034 158.819 236.332 157.988 233.74 156.88C231.69 156.226 229.79 155.172 228.15 153.78C226.76 152.469 225.513 151.014 224.43 149.44C223.473 147.3 223.047 144.96 223.19 142.62V142.62C223.301 140.302 223.718 138.009 224.43 135.8C225.05 133.94 226.91 132.08 228.15 130.8C230.017 129.403 232.121 128.353 234.36 127.7C236.781 126.987 239.279 126.57 241.8 126.46C245.612 126.481 249.395 127.123 253 128.36C256.225 129.782 259.335 131.454 262.3 133.36L257.3 140.8C254.96 139.125 252.47 137.672 249.86 136.46C247.38 135.22 244.86 135.22 242.42 135.22C240.015 135.171 237.647 135.817 235.6 137.08C234.173 138.375 233.287 140.161 233.12 142.08V142.08C233.024 143.151 233.239 144.228 233.74 145.18C234.36 145.8 234.98 147.04 235.6 147.66C236.996 148.392 238.447 149.014 239.94 149.52C242.167 150.299 244.446 150.921 246.76 151.38C249.504 152.009 252.198 152.837 254.82 153.86C256.804 154.652 258.679 155.694 260.4 156.96C261.634 158.252 262.678 159.714 263.5 161.3C264.27 163.283 264.69 165.384 264.74 167.51V167.51C264.685 169.834 264.266 172.135 263.5 174.33C262.251 176.335 260.796 178.206 259.16 179.91C257.296 181.307 255.196 182.357 252.96 183.01C249.9 182.93 246.8 183.55 244.32 183.55Z" fill="white"/>
<path d="M275.32 127.12H285.86L302.61 153.16L319.97 127.12H330.51V182.93H320.59V142.62L303.23 168.66H302.61L285.24 142.62V182.93H275.32V127.12Z" fill="white"/>
<path d="M364 126.5H373.3L397.48 182.31H386.94L381.36 168.67H355.31L349.73 182.31H339.81L364 126.5ZM378.26 160.6L368.34 138.28L359 160.6H378.26Z" fill="white"/>
<path d="M407.4 127.12H432.21C435.343 127.228 438.458 127.643 441.51 128.36C444.116 129.201 446.464 130.695 448.33 132.7C449.852 134.355 451.108 136.238 452.05 138.28C452.816 140.475 453.235 142.776 453.29 145.1V145.1C453.177 147.216 452.76 149.304 452.05 151.3C451.43 153.16 450.19 154.4 449.57 156.3C448.259 157.69 446.804 158.937 445.23 160.02C443.494 161.102 441.616 161.937 439.65 162.5L454.53 183.59H442.75L429.1 164.32H416.7V183.55H406.78L407.4 127.12ZM431.59 154.4C434.69 154.4 437.79 153.78 439.65 151.92C441.528 150.134 442.639 147.689 442.75 145.1V145.1C442.639 142.511 441.528 140.066 439.65 138.28C437.111 136.539 434.076 135.669 431 135.8H416.7V154.4H431.59Z" fill="white"/>
<path d="M478.71 135.8H460.73V127.12H506V135.8H488.01V182.93H478.09L478.71 135.8Z" fill="white"/>
<path d="M566.15 183.55C562.289 183.619 558.468 182.769 555 181.07C548.18 177.97 542.6 173.01 540.12 166.19C538.88 162.46 537.64 158.74 538.26 155.02C538.273 151.224 538.901 147.455 540.12 143.86C541.458 140.424 543.461 137.286 546.014 134.626C548.568 131.966 551.621 129.837 555 128.36C558.72 127.12 562.44 125.88 566.79 125.88C569.081 125.749 571.38 125.958 573.61 126.5L579.19 128.36C581.05 128.98 582.29 130.22 584.19 130.84C585.43 132.08 587.29 133.32 588.53 134.56L582.33 142C580.328 139.992 578.027 138.305 575.51 137C572.795 135.731 569.827 135.095 566.83 135.14C564.306 135.25 561.804 135.667 559.38 136.38C557.081 137.462 554.984 138.93 553.18 140.72C551.373 142.388 550.082 144.54 549.46 146.92C548.747 149.341 548.33 151.839 548.22 154.36C548.33 156.881 548.747 159.379 549.46 161.8C550.081 164.183 551.372 166.338 553.18 168.01C554.984 169.8 557.081 171.268 559.38 172.35C561.63 173.655 564.279 174.096 566.83 173.59C569.827 173.635 572.795 172.999 575.51 171.73C578.273 170.28 580.785 168.396 582.95 166.15L589.15 172.35L584.81 176.69C582.95 177.93 581.71 179.17 579.81 179.79C577.91 180.41 576.09 181.65 573.61 181.65C571.13 183.51 568.61 183.51 566.17 183.51L566.15 183.55Z" fill="white"/>
<path d="M599.01 127.12H608.31V150.06H634.98V127.12H644.9V182.93H634.98V159.36H608.31V182.93H599.01V127.12Z" fill="white"/>
<path d="M679 126.5H688.3L712.49 182.31H702L696.42 168.67H670.42L664.84 182.31H654.92L679 126.5ZM692.64 160.6L683.34 138.28L674 160.6H692.64Z" fill="white"/>
<path d="M722.41 127.12H732.33V182.93H722.41V127.12Z" fill="white"/>
<path d="M747.21 127.12H755.89L785.66 165.56V127.12H795.58V182.93H787.52L757.13 143.24V182.93H747.21V127.12Z" fill="white"/>
<path d="M112.86 179.21V203.39L91.77 215.79L71.31 203.39V179.21L91.77 191.61L112.86 179.21ZM0 95.49L20.46 107.9V149.44L55.81 170.53V194.71L0 161.84V95.49ZM183.55 95.49V161.84L127.12 194.71V170.53L162.46 149.44V107.9L183.55 95.49ZM127.12 62.63L148.2 75V99.21L112.86 120.3V162.46L92.39 174.87L71.93 162.46V120.3L35.35 99.21V75L56.43 62.6L91.77 83.71L127.12 62.63ZM35.35 116.63L55.81 129V153.18L35.35 140.78V116.63ZM148.2 116.63V140.81L127.74 153.21V129L148.2 116.63ZM20.46 41.63L41.55 54L20.46 66.35V90.53L0 78.13V54L20.46 41.63ZM163.08 41.63L184.17 54V78.13L163.08 90.53V66.35L142.62 54L163.08 41.63ZM91.77 41.63L112.86 54L91.77 66.35L71.31 54L91.77 41.63ZM91.77 0L148.2 32.86L127.74 45.27L92.39 24.18L56.39 45.27L36 32.86L91.77 0Z" fill="white"/>
</g>
<defs>
<clipPath id="clip0_1137_653">
<rect width="795.58" height="215.79" fill="white"/>
</clipPath>
</defs>
</svg>
