<svg width="49" height="49" viewBox="0 0 49 49" fill="none" xmlns="http://www.w3.org/2000/svg">
<rect width="49" height="49" fill="black" fill-opacity="0.2"/>
<path d="M40.5628 32.1563L36.75 29.9742L32.9372 32.1563L36.75 34.3383L40.5628 32.1563Z" fill="url(#paint0_angular_935_22087)"/>
<path d="M36.75 35.9844C36.6159 35.9853 36.4839 35.951 36.3672 35.8849L32.1562 33.4731V37.8372L36.75 40.4633L41.3438 37.8372V33.4731L37.1328 35.8849C37.0161 35.951 36.8841 35.9853 36.75 35.9844Z" fill="url(#paint1_angular_935_22087)"/>
<path d="M46.328 28.2439L37.9061 23.2903C37.5515 23.0801 37.1469 22.9691 36.7347 22.9691C36.3225 22.9691 35.9179 23.0801 35.5633 23.2903L32.9219 24.8675C32.9219 24.745 32.9219 24.6225 32.9219 24.5C32.9219 22.2663 32.0346 20.1242 30.4552 18.5448C28.8758 16.9654 26.7336 16.0781 24.5 16.0781C24.3545 16.0781 24.2091 16.0781 24.0636 16.0781C24.7556 13.6196 24.6129 11.0011 23.6578 8.63233C22.7027 6.2636 20.9892 4.27842 18.7854 2.98752C16.5817 1.69662 14.0121 1.17288 11.4788 1.49828C8.94564 1.82368 6.59182 2.97986 4.78586 4.78583C2.97989 6.59179 1.82372 8.94561 1.49831 11.4788C1.17291 14.012 1.69665 16.5816 2.98755 18.7854C4.27845 20.9892 6.26364 22.7027 8.63236 23.6578C11.0011 24.6129 13.6196 24.7556 16.0781 24.0636V24.5C16.0789 25.7352 16.3513 26.9552 16.8762 28.0734C17.4011 29.1916 18.1655 30.1807 19.1153 30.9704C20.0651 31.7602 21.177 32.3314 22.3722 32.6435C23.5674 32.9556 24.8166 33.001 26.0312 32.7764V40.2029C26.0302 40.6056 26.1351 41.0015 26.3353 41.3509C26.5355 41.7003 26.8241 41.9909 27.172 42.1936L35.5939 47.1472C35.9485 47.3574 36.3531 47.4683 36.7653 47.4683C37.1775 47.4683 37.5821 47.3574 37.9367 47.1472L46.3586 42.1936C46.7009 41.9871 46.9833 41.6948 47.178 41.3457C47.3727 40.9965 47.4729 40.6027 47.4688 40.2029V30.2498C47.4725 29.8445 47.3689 29.4455 47.1686 29.0932C46.9682 28.7409 46.6782 28.4479 46.328 28.2439ZM13.7812 18.375V20.6718C13.7812 20.8749 13.7006 21.0696 13.557 21.2132C13.4134 21.3568 13.2187 21.4375 13.0156 21.4375C12.8126 21.4375 12.6178 21.3568 12.4742 21.2132C12.3307 21.0696 12.25 20.8749 12.25 20.6718V18.375H9.95312C9.75007 18.375 9.55533 18.2943 9.41175 18.1507C9.26816 18.0071 9.1875 17.8124 9.1875 17.6093C9.1875 17.4063 9.26816 17.2115 9.41175 17.068C9.55533 16.9244 9.75007 16.8437 9.95312 16.8437H14.5469C14.7499 16.8437 14.9447 16.7631 15.0883 16.6195C15.2318 16.4759 15.3125 16.2811 15.3125 16.0781V14.5468C15.3125 14.3438 15.2318 14.149 15.0883 14.0055C14.9447 13.8619 14.7499 13.7812 14.5469 13.7812H11.4844C10.8752 13.7812 10.291 13.5392 9.86024 13.1085C9.42949 12.6777 9.1875 12.0935 9.1875 11.4843V9.95309C9.1875 9.34392 9.42949 8.75971 9.86024 8.32896C10.291 7.89821 10.8752 7.65622 11.4844 7.65622H12.25V5.35934C12.25 5.15629 12.3307 4.96155 12.4742 4.81797C12.6178 4.67438 12.8126 4.59372 13.0156 4.59372C13.2187 4.59372 13.4134 4.67438 13.557 4.81797C13.7006 4.96155 13.7812 5.15629 13.7812 5.35934V7.65622H16.0781C16.2812 7.65622 16.4759 7.73688 16.6195 7.88047C16.7631 8.02405 16.8437 8.21879 16.8437 8.42184C16.8437 8.6249 16.7631 8.81964 16.6195 8.96322C16.4759 9.1068 16.2812 9.18747 16.0781 9.18747H11.4844C11.2813 9.18747 11.0866 9.26813 10.943 9.41171C10.7994 9.5553 10.7187 9.75004 10.7187 9.95309V11.4843C10.7187 11.6874 10.7994 11.8821 10.943 12.0257C11.0866 12.1693 11.2813 12.25 11.4844 12.25H14.5469C15.156 12.25 15.7403 12.492 16.171 12.9227C16.6018 13.3535 16.8437 13.9377 16.8437 14.5468V16.0781C16.8437 16.6873 16.6018 17.2715 16.171 17.7022C15.7403 18.133 15.156 18.375 14.5469 18.375H13.7812ZM24.5 31.3906C22.6725 31.3906 20.9198 30.6646 19.6276 29.3724C18.3353 28.0801 17.6094 26.3275 17.6094 24.5C17.6102 24.1639 17.6383 23.8285 17.6936 23.497C20.2715 22.3356 22.3356 20.2715 23.497 17.6936C23.8285 17.6383 24.1639 17.6101 24.5 17.6093C25.5178 17.6094 26.523 17.8349 27.4433 18.2696C28.3636 18.7044 29.1761 19.3377 29.8225 20.1239C30.4689 20.9101 30.9331 21.8298 31.1817 22.8167C31.4304 23.8037 31.4572 24.8335 31.2605 25.8322L27.172 28.2439C26.8241 28.4466 26.5355 28.7372 26.3353 29.0865C26.1351 29.4359 26.0302 29.8318 26.0312 30.2345V31.2145C25.5293 31.3319 25.0155 31.3909 24.5 31.3906ZM42.875 38.2812C42.8755 38.4161 42.8404 38.5488 42.7732 38.6658C42.706 38.7827 42.609 38.8799 42.4922 38.9473L37.1328 42.0098C37.0164 42.077 36.8844 42.1124 36.75 42.1124C36.6156 42.1124 36.4836 42.077 36.3672 42.0098L31.0078 38.9473C30.891 38.8799 30.794 38.7827 30.7268 38.6658C30.6596 38.5488 30.6245 38.4161 30.625 38.2812V32.1562C30.6245 32.0213 30.6596 31.8887 30.7268 31.7717C30.794 31.6547 30.891 31.5576 31.0078 31.4901L36.3672 28.4276C36.4836 28.3604 36.6156 28.3251 36.75 28.3251C36.8844 28.3251 37.0164 28.3604 37.1328 28.4276L42.4922 31.4901C42.609 31.5576 42.706 31.6547 42.7732 31.7717C42.8404 31.8887 42.8755 32.0213 42.875 32.1562V38.2812Z" fill="url(#paint2_angular_935_22087)"/>
<path d="M23.7956 5.65027C23.8321 5.74425 23.8867 5.83011 23.9564 5.90293L27.0189 8.96543C27.0901 9.03719 27.1748 9.09415 27.2681 9.13302C27.3614 9.17189 27.4614 9.1919 27.5625 9.1919C27.6636 9.1919 27.7636 9.17189 27.8569 9.13302C27.9502 9.09415 28.0349 9.03719 28.1061 8.96543C28.1779 8.89425 28.2348 8.80957 28.2737 8.71628C28.3125 8.62298 28.3326 8.52291 28.3326 8.42183C28.3326 8.32076 28.3125 8.22069 28.2737 8.12739C28.2348 8.03409 28.1779 7.94941 28.1061 7.87824L26.4523 6.23215C30.9614 6.71397 35.1331 8.84614 38.1649 12.2185C41.1966 15.5909 42.8742 19.9652 42.875 24.5C42.875 24.703 42.9557 24.8978 43.0992 25.0413C43.2428 25.1849 43.4376 25.2656 43.6406 25.2656C43.8437 25.2656 44.0384 25.1849 44.182 25.0413C44.3256 24.8978 44.4062 24.703 44.4062 24.5C44.4049 19.5276 42.5426 14.7358 39.186 11.0674C35.8293 7.39903 31.2213 5.1197 26.2686 4.67793L28.1061 2.84043C28.1775 2.76904 28.2341 2.68429 28.2727 2.59102C28.3114 2.49775 28.3313 2.39779 28.3313 2.29683C28.3313 2.19588 28.3114 2.09591 28.2727 2.00264C28.2341 1.90937 28.1775 1.82463 28.1061 1.75324C28.0347 1.68185 27.95 1.62523 27.8567 1.58659C27.7634 1.54796 27.6635 1.52808 27.5625 1.52808C27.4615 1.52808 27.3616 1.54796 27.2683 1.58659C27.175 1.62523 27.0903 1.68185 27.0189 1.75324L23.9564 4.81574C23.8867 4.88855 23.8321 4.97441 23.7956 5.0684C23.719 5.2548 23.719 5.46387 23.7956 5.65027Z" fill="url(#paint3_angular_935_22087)"/>
<path d="M22.7467 40.0345C22.6025 39.8904 22.407 39.8094 22.2031 39.8094C21.9992 39.8094 21.8037 39.8904 21.6595 40.0345C21.5154 40.1787 21.4344 40.3742 21.4344 40.5781C21.4344 40.782 21.5154 40.9775 21.6595 41.1217L23.3822 42.875C18.7051 42.59 14.3136 40.5289 11.1059 37.1133C7.89806 33.6977 6.11631 29.1857 6.12499 24.5C6.12499 24.2969 6.04433 24.1022 5.90074 23.9586C5.75716 23.815 5.56242 23.7344 5.35936 23.7344C5.15631 23.7344 4.96157 23.815 4.81799 23.9586C4.6744 24.1022 4.59374 24.2969 4.59374 24.5C4.58655 29.6014 6.53816 34.5109 10.0458 38.2151C13.5534 41.9193 18.3492 44.1355 23.4434 44.4062L21.6595 46.1902C21.5878 46.2613 21.5308 46.346 21.4919 46.4393C21.4531 46.5326 21.4331 46.6327 21.4331 46.7338C21.4331 46.8348 21.4531 46.9349 21.4919 47.0282C21.5308 47.1215 21.5878 47.2062 21.6595 47.2773C21.7307 47.3491 21.8154 47.4061 21.9087 47.4449C22.002 47.4838 22.102 47.5038 22.2031 47.5038C22.3042 47.5038 22.4043 47.4838 22.4976 47.4449C22.5909 47.4061 22.6755 47.3491 22.7467 47.2773L25.8092 44.2148C25.881 44.1437 25.9379 44.059 25.9768 43.9657C26.0157 43.8724 26.0357 43.7723 26.0357 43.6713C26.0357 43.5702 26.0157 43.4701 25.9768 43.3768C25.9379 43.2835 25.881 43.1988 25.8092 43.1277L22.7467 40.0345Z" fill="url(#paint4_angular_935_22087)"/>
<defs>
<radialGradient id="paint0_angular_935_22087" cx="0" cy="0" r="1" gradientUnits="userSpaceOnUse" gradientTransform="translate(36.75 32.1563) rotate(90) scale(2.18203 3.81281)">
<stop stop-color="white"/>
<stop offset="1" stop-color="#36CDC6"/>
</radialGradient>
<radialGradient id="paint1_angular_935_22087" cx="0" cy="0" r="1" gradientUnits="userSpaceOnUse" gradientTransform="translate(36.75 36.9682) rotate(90) scale(3.49508 4.59375)">
<stop stop-color="white"/>
<stop offset="1" stop-color="#36CDC6"/>
</radialGradient>
<radialGradient id="paint2_angular_935_22087" cx="0" cy="0" r="1" gradientUnits="userSpaceOnUse" gradientTransform="translate(24.4365 24.4362) rotate(90) scale(23.0321 23.0323)">
<stop stop-color="white"/>
<stop offset="1" stop-color="#36CDC6"/>
</radialGradient>
<radialGradient id="paint3_angular_935_22087" cx="0" cy="0" r="1" gradientUnits="userSpaceOnUse" gradientTransform="translate(34.0722 13.3968) rotate(90) scale(11.8688 10.334)">
<stop stop-color="white"/>
<stop offset="1" stop-color="#36CDC6"/>
</radialGradient>
<radialGradient id="paint4_angular_935_22087" cx="0" cy="0" r="1" gradientUnits="userSpaceOnUse" gradientTransform="translate(15.3147 35.6191) rotate(90) scale(11.8847 10.721)">
<stop stop-color="white"/>
<stop offset="1" stop-color="#36CDC6"/>
</radialGradient>
</defs>
</svg>
