<svg width="28" height="29" viewBox="0 0 28 29" fill="none" xmlns="http://www.w3.org/2000/svg">
<path d="M9.93686 3.84456C10.2573 4.16338 10.7748 4.16497 11.0984 3.84297C12.6256 2.31074 15.3743 2.31074 16.9015 3.84297C17.2262 4.16601 17.7437 4.16229 18.063 3.84456C18.3835 3.52491 18.3835 3.00499 18.0646 2.68458C17.0249 1.64317 15.5445 0.998291 14 0.998291C12.4555 0.998291 10.9751 1.64317 9.93527 2.68458C9.61645 3.00499 9.61645 3.52491 9.93686 3.84456Z" fill="#238484"/>
<path d="M12.2585 5.00135C11.9396 5.32176 11.9396 5.84168 12.26 6.16133C12.5805 6.48015 13.1012 6.48174 13.4216 6.15974C13.7292 5.85054 14.2707 5.85054 14.5784 6.15974C14.8954 6.47835 15.4162 6.48349 15.7399 6.16133C16.0603 5.84168 16.0603 5.32176 15.7415 5.00135C14.8124 4.07051 13.1877 4.07051 12.2585 5.00135Z" fill="#238484"/>
<path d="M0.954898 24.0105L4.97656 23.3492V15.9822L0.342891 19.2528C0.128187 19.4066 0 19.6549 0 19.9201V23.2014C0 23.4425 0.105766 23.6716 0.290008 23.827C0.47425 23.9832 0.717773 24.0489 0.954898 24.0105Z" fill="#238484"/>
<path d="M21.3828 14.8104L16.4609 11.2948V10.0217C16.4609 9.80381 16.3744 9.59551 16.2206 9.44173L14.58 7.8011C14.2595 7.48069 13.7404 7.48069 13.42 7.8011L11.7794 9.44173C11.6256 9.59551 11.5391 9.80381 11.5391 10.0217V11.2948L6.61719 14.8104V23.0757L10.2557 22.4692L10.8053 23.5683C10.9447 23.8463 11.2282 24.0217 11.5391 24.0217H13.1797C13.4905 24.0217 13.7741 23.8463 13.9135 23.5683L14 23.3952L14.0865 23.5683C14.2259 23.8463 14.5095 24.0217 14.8203 24.0217H16.4609C16.7718 24.0217 17.0553 23.8463 17.1947 23.5683L17.7443 22.4692L21.3828 23.0757V14.8104ZM13.1797 18.2795C13.1797 18.7329 12.8128 19.0998 12.3594 19.0998C11.906 19.0998 11.5391 18.7329 11.5391 18.2795V14.9983C11.5391 14.5448 11.906 14.1779 12.3594 14.1779C12.8128 14.1779 13.1797 14.5448 13.1797 14.9983V18.2795ZM16.4609 18.2795C16.4609 18.7329 16.094 19.0998 15.6406 19.0998C15.1872 19.0998 14.8203 18.7329 14.8203 18.2795V14.9983C14.8203 14.5448 15.1872 14.1779 15.6406 14.1779C16.094 14.1779 16.4609 14.5448 16.4609 14.9983V18.2795Z" fill="#238484"/>
<path d="M23.0234 15.9822V23.3492L27.0451 24.0105C27.2975 24.051 27.5355 23.9752 27.71 23.827C27.8942 23.6716 28 23.4425 28 23.2014V19.9202C28 19.655 27.8718 19.4067 27.6571 19.2529L23.0234 15.9822Z" fill="#238484"/>
<path d="M13.1797 28.1777V26.4824C13.1797 26.029 12.8128 25.6621 12.3594 25.6621C11.906 25.6621 11.5391 26.029 11.5391 26.4824V28.1777C11.5391 28.6311 11.906 28.998 12.3594 28.998C12.8128 28.998 13.1797 28.6311 13.1797 28.1777Z" fill="#238484"/>
<path d="M16.461 28.1777V26.4824C16.461 26.029 16.0941 25.6621 15.6407 25.6621C15.1873 25.6621 14.8204 26.029 14.8204 26.4824V28.1777C14.8204 28.6311 15.1873 28.998 15.6407 28.998C16.0941 28.998 16.461 28.6311 16.461 28.1777Z" fill="#238484"/>
</svg>
