<svg width="25" height="21" viewBox="0 0 25 21" fill="none" xmlns="http://www.w3.org/2000/svg">
<path d="M6.59174 4.83418H18.4081C18.7707 4.83418 19.127 4.86167 19.4751 4.91455L18.4767 2.80078C17.713 1.18374 16.4812 0.293213 15.0083 0.293213H9.98954C8.51625 0.293213 7.28441 1.18394 6.52094 2.80137L5.52338 4.9147C5.87191 4.86172 6.22865 4.83418 6.59174 4.83418Z" fill="#238484"/>
<path d="M2.2561 8.34995H5.39263C6.02534 8.34995 6.54009 7.8352 6.54009 7.20249V6.2998C4.81694 6.31548 3.27661 7.11089 2.2561 8.34995Z" fill="#238484"/>
<path d="M19.6074 8.34995H22.7439C21.7234 7.11089 20.1831 6.31548 18.4599 6.2998V7.20249C18.4599 7.8352 18.9746 8.34995 19.6074 8.34995Z" fill="#238484"/>
<path d="M14.3087 13.135H10.6913C9.73641 13.135 8.92186 13.7473 8.61957 14.5999H16.3804C16.0781 13.7473 15.2636 13.135 14.3087 13.135Z" fill="#238484"/>
<path d="M19.6073 9.8147C18.1669 9.8147 16.995 8.64282 16.995 7.20239V6.29907H8.00493V7.20239C8.00493 8.64282 6.83306 9.8147 5.39263 9.8147H1.38413C1.12153 10.4637 0.976562 11.1723 0.976562 11.9143V12.4026C0.976562 13.6142 1.96226 14.5999 3.17383 14.5999H7.10293C7.44316 12.9303 8.9228 11.6702 10.6914 11.6702H14.3087C16.0772 11.6702 17.5568 12.9303 17.8971 14.5999H21.8262C23.0377 14.5999 24.0234 13.6142 24.0234 12.4026V11.9143C24.0234 11.1723 23.8784 10.4637 23.6159 9.8147H19.6073Z" fill="#238484"/>
<path d="M4.6875 3.12524C4.6875 2.8145 4.62617 2.51797 4.51587 2.24634H5.16318L5.19634 2.17612C5.44224 1.65518 5.73291 1.18901 6.06128 0.781494C6.06128 0.781494 2.11797 0.787451 2.06807 0.798193C0.905225 0.935156 0 1.92617 0 3.12524C0 4.41758 1.05142 5.46899 2.34375 5.46899C3.63608 5.46899 4.6875 4.41758 4.6875 3.12524Z" fill="#238484"/>
<path d="M22.9318 0.798193C22.5949 0.781494 18.9366 0.781494 18.9366 0.781494C19.2648 1.18877 19.8349 2.24634 19.8349 2.24634H20.4841C20.3738 2.51797 20.3125 2.8145 20.3125 3.12524C20.3125 4.41758 21.3639 5.46899 22.6562 5.46899C23.9485 5.46899 25 4.41758 25 3.12524C25 1.92617 24.0947 0.935156 22.9318 0.798193Z" fill="#238484"/>
<path d="M3.66205 16.0647C3.25756 16.0647 2.92963 16.3926 2.92963 16.7971V18.9456C2.92963 19.35 3.25756 19.678 3.66205 19.678C4.06654 19.678 4.39447 19.35 4.39447 18.9456V16.7971C4.39447 16.3926 4.06654 16.0647 3.66205 16.0647Z" fill="#238484"/>
<path d="M6.5918 17.0413C6.1873 17.0413 5.85938 17.3692 5.85938 17.7737V19.9709C5.85938 20.3754 6.1873 20.7034 6.5918 20.7034C6.99629 20.7034 7.32422 20.3754 7.32422 19.9709V17.7737C7.32422 17.3692 6.99629 17.0413 6.5918 17.0413Z" fill="#238484"/>
<path d="M21.3379 16.0647C20.9334 16.0647 20.6055 16.3926 20.6055 16.7971V18.9456C20.6055 19.35 20.9334 19.678 21.3379 19.678C21.7424 19.678 22.0703 19.35 22.0703 18.9456V16.7971C22.0703 16.3926 21.7424 16.0647 21.3379 16.0647Z" fill="#238484"/>
<path d="M18.4082 17.0413C18.0037 17.0413 17.6758 17.3692 17.6758 17.7737V19.9709C17.6758 20.3754 18.0037 20.7034 18.4082 20.7034C18.8127 20.7034 19.1406 20.3754 19.1406 19.9709V17.7737C19.1406 17.3692 18.8127 17.0413 18.4082 17.0413Z" fill="#238484"/>
</svg>
