<svg width="26" height="28" viewBox="0 0 26 28" fill="none" xmlns="http://www.w3.org/2000/svg">
<path d="M25.5701 0.426061C25.2484 0.133317 24.7474 0.161584 24.4399 0.469124L24.1964 0.7126L23.6505 0.166728C23.4476 -0.0360717 23.1175 -0.0601488 22.902 0.12918C22.6659 0.336594 22.6572 0.696584 22.8759 0.91524L23.4348 1.47416L22.5232 2.38575L22.1993 2.06187C21.8839 1.74638 21.3724 1.74638 21.057 2.06187L15.2942 7.82469C15.0657 8.05321 15.0036 8.3843 15.1061 8.66946L14.5318 9.24375C14.4434 9.21125 14.3495 9.19332 14.2535 9.19332C14.0393 9.19332 13.8338 9.27844 13.6823 9.4299L12.7781 10.3341L11.9261 9.48209C11.4592 9.01513 10.7211 8.97758 10.2093 9.39469L6.9136 12.0798C6.63284 12.3085 6.46128 12.6471 6.44288 13.0088C6.42447 13.3704 6.56077 13.7248 6.81681 13.9808L7.97416 15.1381L7.06994 16.0424C6.91848 16.1938 6.83336 16.3993 6.83336 16.6135C6.83336 16.7113 6.85192 16.8069 6.88554 16.8967L6.32657 17.449C6.04136 17.3465 5.71027 17.4086 5.48181 17.6371L0.236598 22.8823C-0.0844128 23.2033 -0.0779427 23.7257 0.25097 24.0387L3.29042 26.9305C3.64616 27.2689 4.21903 27.2144 4.50445 26.8148L8.82344 20.7692C9.04336 20.4484 9.00343 20.0164 8.72835 19.7413L8.28833 19.3013L8.73699 18.8518L9.44727 19.562L10.7989 23.5887C10.9117 23.9247 11.2253 24.1395 11.5643 24.1395C11.6345 24.1395 11.7059 24.1303 11.7768 24.1111L15.2448 23.1674C15.5074 23.0959 15.7268 22.9049 15.8149 22.6473C15.9402 22.2811 15.7916 21.8891 15.4737 21.6942L15.1389 21.4889L14.0966 17.6585L15.0396 16.8582C16.4667 17.8702 18.1831 18.4237 19.9481 18.4237C20.2483 18.4237 20.55 18.4077 20.8518 18.3752C21.1497 18.3432 21.4039 18.145 21.5126 17.8659L22.433 15.5031C22.5354 15.2403 22.4933 14.9432 22.322 14.7192C22.1507 14.4952 21.875 14.3766 21.5945 14.4067C20.2269 14.5527 18.8649 14.2808 17.677 13.6576C17.6825 13.6038 17.6869 13.5498 17.6892 13.4955C17.7191 12.7622 17.4386 12.0439 16.9197 11.5249L16.4922 11.0975L16.9584 10.6313L17.758 11.431C17.91 11.5829 18.1156 11.6675 18.3291 11.6675C18.3459 11.6675 18.3627 11.667 18.3795 11.6659C18.6108 11.6515 18.8248 11.5384 18.967 11.3554L24.0069 4.86967C24.2568 4.54808 24.2282 4.09082 23.9403 3.80285L23.6655 3.52809L25.5983 1.59529C25.9229 1.27072 25.9135 0.738586 25.5701 0.426061ZM11.3759 16.4008L10.9622 16.8145C10.857 16.9196 10.7192 16.9722 10.5814 16.9722C10.4436 16.9722 10.3057 16.9196 10.2006 16.8145C9.99033 16.6042 9.99033 16.2632 10.2007 16.0529L10.6144 15.6392C10.8248 15.4289 11.1658 15.4289 11.376 15.6392C11.5863 15.8495 11.5863 16.1905 11.3759 16.4008ZM9.1165 13.9958L8.21997 13.0993L10.9965 10.8372L11.6358 11.4765L9.1165 13.9958Z" fill="#3AD1D1"/>
</svg>
