<svg width="20" height="24" viewBox="0 0 20 24" fill="none" xmlns="http://www.w3.org/2000/svg">
<path d="M14.5814 13.1724C13.3457 13.4588 12.3717 14.4328 12.0853 15.6685C13.321 15.382 14.2949 14.4081 14.5814 13.1724Z" fill="#258B8B"/>
<path d="M5.41864 13.1724C5.70508 14.4081 6.67904 15.382 7.91473 15.6685C7.62828 14.4328 6.65433 13.4588 5.41864 13.1724Z" fill="#258B8B"/>
<path d="M18 4.99829C19.1028 4.99829 20 4.10114 20 2.99829C20 1.89545 19.1028 0.998291 18 0.998291C15.7865 0.998291 13.7952 2.29829 12.7492 4.20829C11.8841 3.91785 10.9617 3.75385 10 3.75385C9.03831 3.75385 8.11587 3.91785 7.2508 4.20829C6.20476 2.29829 4.21347 0.998291 2 0.998291C0.897156 0.998291 0 1.89545 0 2.99829C0 4.10114 0.897156 4.99829 2 4.99829C3.10284 4.99829 4 4.10114 4 2.99829C4 2.92025 3.98569 2.8462 3.97698 2.77051C4.82404 3.16571 5.53947 3.90189 6.02338 4.7286C3.24147 6.17287 1.33333 9.07571 1.33333 12.4205C1.33333 14.5553 2.11653 16.6061 3.53191 18.1887L7.28907 22.5169C7.97071 23.3033 8.95898 23.7538 10 23.7538C11.041 23.7538 12.0293 23.3033 12.7109 22.5169L16.4655 18.192C17.8848 16.6028 18.6667 14.5533 18.6667 12.4205C18.6667 9.07571 16.7585 6.17287 13.9766 4.7286C14.4605 3.90185 15.1759 3.16567 16.023 2.77051C16.0143 2.8462 16 2.92025 16 2.99829C16 4.10114 16.8972 4.99829 18 4.99829ZM8.66667 17.0872C6.09373 17.0872 4 14.9934 4 12.4205C4 12.052 4.29818 11.7538 4.66667 11.7538C7.2396 11.7538 9.33333 13.8476 9.33333 16.4205C9.33333 16.789 9.03516 17.0872 8.66667 17.0872ZM16 12.4205C16 14.9934 13.9063 17.0872 11.3333 17.0872C10.9648 17.0872 10.6667 16.789 10.6667 16.4205C10.6667 13.8476 12.7604 11.7538 15.3333 11.7538C15.7018 11.7538 16 12.052 16 12.4205Z" fill="#258B8B"/>
</svg>
