<svg width="19" height="21" viewBox="0 0 19 21" fill="none" xmlns="http://www.w3.org/2000/svg">
<path d="M4.25003 9.75008C4.26618 10.5132 4.44517 11.2641 4.77503 11.9524C5.13915 8.72258 6.11415 6.93121 6.61815 6.20071C6.61365 6.19509 6.60802 6.18946 6.6039 6.18384C5.35965 6.70509 4.25003 8.54295 4.25003 9.75008Z" fill="#3AD1D1" fill-opacity="0.62"/>
<path d="M7.20203 14.553C7.26816 14.2523 7.25824 13.9399 7.17315 13.644C6.85787 13.4137 6.56867 13.1496 6.31066 12.8565C5.98664 12.4693 5.73822 12.0248 5.57828 11.5459C5.51416 12.0105 5.46316 12.5096 5.42828 13.0459C5.89359 13.68 6.5011 14.1962 7.20203 14.553Z" fill="#3AD1D1" fill-opacity="0.62"/>
<path d="M8.10801 16.7416C9.02747 16.9196 9.97254 16.9196 10.892 16.7416C11.1346 16.4348 11.4379 16.1814 11.783 15.9972C11.5388 15.7597 11.3442 15.4761 11.2104 15.1628C11.0766 14.8495 11.0064 14.5128 11.0037 14.1721C10.5451 14.4394 10.0299 14.5946 9.5 14.6251C8.97048 14.5953 8.45544 14.4412 7.99663 14.1751C7.99357 14.5154 7.9231 14.8517 7.78928 15.1646C7.65546 15.4775 7.46096 15.7607 7.21701 15.998C7.56208 16.1818 7.86542 16.435 8.10801 16.7416Z" fill="#3AD1D1" fill-opacity="0.62"/>
<path d="M13.571 13.0459C13.5365 12.5074 13.4855 12.006 13.421 11.5396C13.2617 12.0213 13.0128 12.4686 12.6875 12.858C12.4296 13.1513 12.1404 13.4153 11.825 13.6455C11.7408 13.9406 11.7313 14.2519 11.7972 14.5515C12.4979 14.195 13.1053 13.6793 13.571 13.0459Z" fill="#3AD1D1" fill-opacity="0.62"/>
<path d="M6.45052 15.6802C6.61126 15.5475 6.75599 15.3964 6.88176 15.2302C4.75627 14.1839 3.50003 11.6943 3.50003 9.74997C3.50003 8.30472 4.71202 6.24223 6.21314 5.54173C6.16889 5.44236 6.14677 5.37711 6.14264 5.36436C6.11231 5.26958 6.12087 5.16663 6.16644 5.07816C6.21201 4.98969 6.29086 4.92294 6.38564 4.89261C6.48042 4.86227 6.58337 4.87083 6.67184 4.91641C6.76031 4.96198 6.82705 5.04083 6.85739 5.13561C6.91034 5.27632 6.97889 5.41066 7.06176 5.53611C7.06311 5.53889 7.06424 5.54177 7.06514 5.54473C7.07068 5.55116 7.07581 5.55792 7.08051 5.56498C7.34564 5.95615 7.70835 6.27126 8.13273 6.47911C8.55711 6.68696 9.02843 6.78033 9.50001 6.74998C9.97309 6.78047 10.4459 6.68641 10.8713 6.47717C11.2967 6.26793 11.6598 5.95083 11.9244 5.55748C11.9274 5.55223 11.9322 5.54886 11.9352 5.54361C11.9382 5.53836 11.9352 5.53836 11.9382 5.53611C12.0215 5.41013 12.0904 5.27515 12.1434 5.13373C12.1778 5.0442 12.2453 4.97127 12.3319 4.92996C12.4184 4.88864 12.5176 4.88208 12.6088 4.91163C12.7001 4.94117 12.7766 5.00457 12.8225 5.08878C12.8685 5.173 12.8804 5.27162 12.8559 5.36436C12.8517 5.37711 12.8296 5.44236 12.7854 5.54173C14.288 6.24223 15.5 8.30472 15.5 9.74997C15.5 11.6943 14.2437 14.1836 12.1186 15.2306C12.2442 15.3969 12.3888 15.5479 12.5495 15.6806C15.6387 14.1749 16.625 10.6413 16.625 9.74997C16.625 8.37335 15.5641 6.58573 15.5532 6.56773C15.5277 6.52493 15.5109 6.47753 15.5037 6.42823C15.1494 3.94799 12.2581 0 9.50001 0C6.74189 0 3.85065 3.94799 3.49628 6.42823C3.4891 6.47753 3.47228 6.52493 3.44678 6.56773C3.4359 6.58573 2.37503 8.37335 2.37503 9.74997C2.37503 10.6413 3.36128 14.175 6.45052 15.6802Z" fill="#3AD1D1" fill-opacity="0.62"/>
<path d="M14.75 9.75008C14.75 8.54333 13.6404 6.70546 12.398 6.18384C12.3935 6.18946 12.3879 6.19546 12.3834 6.20071C12.8874 6.93121 13.8624 8.72295 14.2265 11.9524C14.5558 11.264 14.7343 10.5131 14.75 9.75008Z" fill="#3AD1D1" fill-opacity="0.62"/>
<path d="M9.50002 7.50005C8.6546 7.52648 7.82644 7.25727 7.15815 6.7388C6.58157 7.67064 6.1634 8.6916 5.92065 9.76017L6.29228 11.3205C6.4228 11.7042 6.62345 12.0602 6.88403 12.3705C7.23433 12.7589 7.64009 13.0934 8.08815 13.3632C8.50754 13.6512 8.9935 13.8273 9.50002 13.875C10.325 13.875 11.6 12.9855 12.116 12.3732C12.3841 12.0522 12.5886 11.6831 12.7186 11.2857L13.0805 9.75867C12.8379 8.69004 12.4198 7.66906 11.843 6.7373C11.1745 7.25639 10.346 7.52612 9.50002 7.50005ZM9.12502 9.75004H9.87502C9.97447 9.75004 10.0699 9.78955 10.1402 9.85988C10.2105 9.9302 10.25 10.0256 10.25 10.125C10.25 10.2245 10.2105 10.3199 10.1402 10.3902C10.0699 10.4605 9.97447 10.5 9.87502 10.5H9.12502C9.02556 10.5 8.93018 10.4605 8.85985 10.3902C8.78953 10.3199 8.75002 10.2245 8.75002 10.125C8.75002 10.0256 8.78953 9.9302 8.85985 9.85988C8.93018 9.78955 9.02556 9.75004 9.12502 9.75004ZM8.00002 8.62505C8.00002 8.7245 7.96051 8.81989 7.89019 8.89021C7.81986 8.96054 7.72448 9.00005 7.62502 9.00005C7.52557 9.00005 7.43018 8.96054 7.35986 8.89021C7.28953 8.81989 7.25002 8.7245 7.25002 8.62505C7.15057 8.62505 7.05519 8.58554 6.98486 8.51521C6.91453 8.44489 6.87503 8.34951 6.87503 8.25005C6.87503 8.15059 6.91453 8.05521 6.98486 7.98489C7.05519 7.91456 7.15057 7.87505 7.25002 7.87505H8.00002C8.09948 7.87505 8.19486 7.91456 8.26519 7.98489C8.33551 8.05521 8.37502 8.15059 8.37502 8.25005C8.37502 8.34951 8.33551 8.44489 8.26519 8.51521C8.19486 8.58554 8.09948 8.62505 8.00002 8.62505ZM9.87502 13.125H9.12502C9.02556 13.125 8.93018 13.0855 8.85985 13.0152C8.78953 12.9449 8.75002 12.8495 8.75002 12.75C8.75002 12.6506 8.78953 12.5552 8.85985 12.4849C8.93018 12.4145 9.02556 12.375 9.12502 12.375H9.87502C9.97447 12.375 10.0699 12.4145 10.1402 12.4849C10.2105 12.5552 10.25 12.6506 10.25 12.75C10.25 12.8495 10.2105 12.9449 10.1402 13.0152C10.0699 13.0855 9.97447 13.125 9.87502 13.125ZM10.25 12H8.75002C8.65056 12 8.55518 11.9605 8.48485 11.8902C8.41453 11.8199 8.37502 11.7245 8.37502 11.625C8.37502 11.5256 8.41453 11.4302 8.48485 11.3599C8.55518 11.2895 8.65056 11.25 8.75002 11.25H10.25C10.3495 11.25 10.4449 11.2895 10.5152 11.3599C10.5855 11.4302 10.625 11.5256 10.625 11.625C10.625 11.7245 10.5855 11.8199 10.5152 11.8902C10.4449 11.9605 10.3495 12 10.25 12ZM12.125 8.25005C12.125 8.34951 12.0855 8.44489 12.0152 8.51521C11.9448 8.58554 11.8495 8.62505 11.75 8.62505C11.75 8.7245 11.7105 8.81989 11.6402 8.89021C11.5698 8.96054 11.4745 9.00005 11.375 9.00005C11.2756 9.00005 11.1802 8.96054 11.1098 8.89021C11.0395 8.81989 11 8.7245 11 8.62505C10.9006 8.62505 10.8052 8.58554 10.7348 8.51521C10.6645 8.44489 10.625 8.34951 10.625 8.25005C10.625 8.15059 10.6645 8.05521 10.7348 7.98489C10.8052 7.91456 10.9006 7.87505 11 7.87505H11.75C11.8495 7.87505 11.9448 7.91456 12.0152 7.98489C12.0855 8.05521 12.125 8.15059 12.125 8.25005Z" fill="#3AD1D1" fill-opacity="0.62"/>
<path d="M10.25 18.7499C10.2467 18.3492 10.3118 17.9509 10.4424 17.572C9.81609 17.6425 9.18389 17.6425 8.55762 17.572C8.68823 17.9509 8.75328 18.3492 8.74999 18.7499C8.75573 19.2062 8.63893 19.6556 8.41176 20.0514C8.18459 20.4472 7.85539 20.7747 7.4585 20.9999H11.5415C11.1446 20.7747 10.8154 20.4472 10.5882 20.0514C10.3611 19.6556 10.2442 19.2062 10.25 18.7499Z" fill="#3AD1D1" fill-opacity="0.62"/>
<path d="M12.875 19.1248C13.0821 19.1248 13.25 18.9569 13.25 18.7498C13.25 18.5426 13.0821 18.3748 12.875 18.3748C12.6679 18.3748 12.5 18.5426 12.5 18.7498C12.5 18.9569 12.6679 19.1248 12.875 19.1248Z" fill="#3AD1D1" fill-opacity="0.62"/>
<path d="M18.1085 20.8376L16.7799 18.6164C16.5137 18.1742 16.1043 17.8362 15.6196 17.6587L12.4824 16.5176C12.1445 16.6211 11 17.0947 11 18.7499C11 20.9673 14.2374 20.9999 14.375 20.9999H18.0166C18.0358 21.0003 18.0547 20.9954 18.0712 20.9858C18.0877 20.9761 18.1013 20.9621 18.1103 20.9452C18.1202 20.9289 18.1252 20.9101 18.1249 20.8911C18.1246 20.8721 18.1189 20.8535 18.1085 20.8376ZM12.875 19.8749C12.6525 19.8749 12.435 19.809 12.25 19.6853C12.065 19.5617 11.9208 19.386 11.8356 19.1805C11.7505 18.9749 11.7282 18.7487 11.7716 18.5305C11.815 18.3122 11.9222 18.1118 12.0795 17.9545C12.2368 17.7971 12.4373 17.69 12.6555 17.6466C12.8737 17.6032 13.0999 17.6254 13.3055 17.7106C13.5111 17.7957 13.6868 17.9399 13.8104 18.1249C13.934 18.3099 14 18.5274 14 18.7499C14 19.0483 13.8815 19.3345 13.6705 19.5454C13.4595 19.7564 13.1734 19.8749 12.875 19.8749Z" fill="#3AD1D1" fill-opacity="0.62"/>
<path d="M8.00002 18.7499C8.00002 17.0962 6.8574 16.6218 6.51728 16.5176L3.38041 17.6587C2.89487 17.8361 2.48466 18.1744 2.21792 18.6172L0.892298 20.8361C0.881553 20.8521 0.87557 20.8709 0.875039 20.8902C0.874508 20.9095 0.879451 20.9286 0.889298 20.9452C0.898355 20.9621 0.911905 20.9761 0.92845 20.9858C0.944996 20.9954 0.963891 21.0003 0.983047 20.9999H4.62504C4.76266 20.9999 8.00002 20.9673 8.00002 18.7499ZM6.12503 19.8749C5.90253 19.8749 5.68502 19.809 5.50002 19.6853C5.31501 19.5617 5.17082 19.386 5.08567 19.1805C5.00052 18.9749 4.97824 18.7487 5.02165 18.5305C5.06506 18.3122 5.1722 18.1118 5.32954 17.9545C5.48687 17.7971 5.68733 17.69 5.90555 17.6466C6.12378 17.6032 6.34998 17.6254 6.55555 17.7106C6.76111 17.7957 6.93681 17.9399 7.06043 18.1249C7.18405 18.3099 7.25003 18.5274 7.25003 18.7499C7.25003 19.0483 7.1315 19.3345 6.92052 19.5454C6.70955 19.7564 6.4234 19.8749 6.12503 19.8749Z" fill="#3AD1D1" fill-opacity="0.62"/>
<path d="M6.12503 19.1248C6.33214 19.1248 6.50003 18.9569 6.50003 18.7498C6.50003 18.5426 6.33214 18.3748 6.12503 18.3748C5.91792 18.3748 5.75003 18.5426 5.75003 18.7498C5.75003 18.9569 5.91792 19.1248 6.12503 19.1248Z" fill="#3AD1D1" fill-opacity="0.62"/>
</svg>
