<svg width="16" height="17" viewBox="0 0 16 17" fill="none" xmlns="http://www.w3.org/2000/svg">
<path d="M11.3333 1.34009H4.66659C2.82564 1.34009 1.33325 2.83247 1.33325 4.67342V11.3401C1.33325 13.181 2.82564 14.6734 4.66659 14.6734H11.3333C13.1742 14.6734 14.6666 13.181 14.6666 11.3401V4.67342C14.6666 2.83247 13.1742 1.34009 11.3333 1.34009Z" fill="white"/>
<path d="M10.6666 7.58673C10.7488 8.14156 10.6541 8.70821 10.3957 9.20608C10.1374 9.70394 9.72865 10.1077 9.22764 10.3598C8.72662 10.612 8.15885 10.6998 7.60508 10.6107C7.0513 10.5216 6.53973 10.2601 6.14311 9.86351C5.7465 9.46689 5.48504 8.95531 5.39593 8.40154C5.30682 7.84777 5.3946 7.27999 5.64677 6.77898C5.89894 6.27797 6.30268 5.86923 6.80054 5.61089C7.29841 5.35256 7.86506 5.25779 8.41989 5.34007C8.98584 5.42399 9.50979 5.68771 9.91435 6.09227C10.3189 6.49683 10.5826 7.02078 10.6666 7.58673Z" stroke="black" stroke-width="1.5" stroke-linecap="round" stroke-linejoin="round"/>
<path d="M11.6667 4.34009H11.6734" stroke="black" stroke-width="1.5" stroke-linecap="round" stroke-linejoin="round"/>
</svg>
