<svg width="187" height="118" viewBox="0 0 187 118" fill="none" xmlns="http://www.w3.org/2000/svg">
<path d="M44 65.7C43.6 65.7 43.4 65.6 43.2 65.5C43.1 65.3 43 65.1 43 64.8V53.6C43 53.3 43.1 53 43.2 52.9C43.4 52.7 43.6 52.6 44 52.6H48.7C50.5 52.6 51.8 53 52.7 53.7C53.5 54.5 54 55.6 54 57.1C54 58.6 53.6 59.7 52.7 60.5C51.9 61.2 50.5 61.6 48.7 61.6H46.9V64.7C46.9 65 46.8 65.3 46.7 65.4C46.5 65.6 46.3 65.6 45.9 65.6H44V65.7ZM48.4 58.8C48.9 58.8 49.3 58.7 49.6 58.4C49.9 58.1 50 57.7 50 57.1C50 56.5 49.9 56.1 49.6 55.8C49.3 55.5 48.9 55.4 48.4 55.4H46.9V58.8H48.4V58.8Z" fill="white"/>
<path d="M58.5 66C57.3 66 56.3 65.6 55.6 64.8C54.9 64 54.5 62.9 54.5 61.5C54.5 60.4 54.7 59.5 55.2 58.7C55.7 57.9 56.4 57.3 57.3 56.8C58.2 56.4 59.3 56.1 60.4 56.1C61.4 56.1 62.2 56.2 63 56.4C63.8 56.6 64.4 56.9 65.1 57.3V65C65.1 65.2 65.1 65.4 65 65.5C64.9 65.6 64.7 65.6 64.5 65.6H62.5C62.4 65.6 62.2 65.6 62.2 65.5C62.1 65.4 62.1 65.4 62 65.3L61.7 64.7C61.3 65.1 60.9 65.4 60.4 65.6C59.9 65.9 59.2 66 58.5 66ZM59.9 63.4C60.4 63.4 60.8 63.3 61.1 63C61.4 62.8 61.5 62.4 61.5 62V59C61.3 58.9 60.9 58.8 60.6 58.8C59.9 58.8 59.4 59 59 59.5C58.6 60 58.4 60.6 58.4 61.5C58.4 62.7 58.9 63.4 59.9 63.4Z" fill="white"/>
<path d="M67.8 65.7C67.4 65.7 67.2 65.6 67 65.5C66.8 65.3 66.8 65.1 66.8 64.8V57C66.8 56.8 66.8 56.6 66.9 56.5C67 56.4 67.2 56.4 67.4 56.4H69.4C69.6 56.4 69.7 56.4 69.7 56.5C69.8 56.5 69.8 56.6 69.9 56.7L70 57.3C70.4 56.9 70.8 56.7 71.4 56.5C72 56.3 72.6 56.2 73.4 56.2C74.4 56.2 75.3 56.5 75.9 57.1C76.5 57.7 76.9 58.5 76.9 59.7V64.8C76.9 65.1 76.8 65.4 76.7 65.5C76.6 65.7 76.3 65.7 75.9 65.7H74C73.6 65.7 73.4 65.6 73.2 65.5C73 65.3 73 65.1 73 64.8V59.9C73 59.5 72.9 59.2 72.7 59.1C72.5 58.9 72.3 58.8 71.9 58.8C71.5 58.8 71.2 58.9 71 59.1C70.8 59.3 70.7 59.6 70.7 59.9V64.7C70.7 65 70.6 65.3 70.5 65.4C70.4 65.6 70.1 65.6 69.7 65.6H67.8V65.7Z" fill="white"/>
<path d="M83.7 66C81.9 66 80.5 65.6 79.5 64.7C78.5 63.9 78 62.7 78 61.1C78 60.1 78.2 59.3 78.7 58.5C79.1 57.8 79.8 57.2 80.6 56.8C81.5 56.4 82.5 56.2 83.6 56.2C84.5 56.2 85.2 56.3 85.8 56.5C86.4 56.7 87 56.9 87.4 57.3C87.5 57.4 87.6 57.5 87.6 57.6C87.6 57.7 87.5 57.8 87.4 58L86.6 59.4C86.5 59.6 86.4 59.7 86.3 59.7C86.2 59.7 86.1 59.6 85.9 59.5C85.6 59.3 85.2 59.1 84.9 59C84.6 58.9 84.2 58.8 83.8 58.8C83.2 58.8 82.6 59 82.2 59.4C81.8 59.8 81.6 60.4 81.6 61.1C81.6 61.8 81.8 62.4 82.2 62.8C82.6 63.2 83.1 63.4 83.8 63.4C84.2 63.4 84.6 63.3 84.9 63.2C85.2 63.1 85.6 62.9 85.9 62.7C86.1 62.6 86.2 62.5 86.3 62.5C86.4 62.5 86.5 62.6 86.6 62.8L87.5 64.3C87.6 64.4 87.6 64.5 87.6 64.6C87.6 64.7 87.5 64.8 87.4 64.9C86.9 65.2 86.3 65.5 85.6 65.7C85.3 65.9 84.6 66 83.7 66Z" fill="white"/>
<path d="M92.8 66C91.6 66 90.6 65.6 89.9 64.8C89.2 64 88.8 62.9 88.8 61.5C88.8 60.4 89 59.5 89.5 58.7C90 57.9 90.7 57.3 91.6 56.8C92.5 56.4 93.6 56.1 94.7 56.1C95.7 56.1 96.5 56.2 97.3 56.4C98.1 56.6 98.7 56.9 99.4 57.3V65C99.4 65.2 99.4 65.4 99.3 65.5C99.2 65.6 99 65.6 98.8 65.6H96.8C96.7 65.6 96.5 65.6 96.5 65.5C96.4 65.4 96.4 65.4 96.3 65.3L96 64.7C95.6 65.1 95.2 65.4 94.7 65.6C94.2 65.9 93.6 66 92.8 66ZM94.3 63.4C94.8 63.4 95.2 63.3 95.5 63C95.8 62.8 95.9 62.4 95.9 62V59C95.7 58.9 95.3 58.8 95 58.8C94.3 58.8 93.8 59 93.4 59.5C93 60 92.8 60.6 92.8 61.5C92.7 62.7 93.2 63.4 94.3 63.4Z" fill="white"/>
<path d="M111.6 65C111.7 65.1 111.7 65.2 111.7 65.3C111.7 65.4 111.7 65.5 111.6 65.6C111.5 65.7 111.4 65.7 111.3 65.7H108.3C108.1 65.7 108 65.7 107.9 65.7C107.8 65.7 107.7 65.6 107.6 65.5L105 61.9V64.7C105 65 104.9 65.3 104.8 65.4C104.6 65.6 104.4 65.6 104 65.6H102.1C101.7 65.6 101.5 65.5 101.3 65.4C101.2 65.2 101.1 65 101.1 64.7V53.6C101.1 53.3 101.2 53 101.3 52.9C101.5 52.7 101.7 52.6 102.1 52.6H104C104.4 52.6 104.6 52.7 104.8 52.9C105 53.1 105 53.3 105 53.6V60L107.5 56.7C107.6 56.6 107.7 56.5 107.8 56.5C107.9 56.5 108 56.4 108.2 56.4H111.2C111.3 56.4 111.4 56.4 111.5 56.5C111.6 56.6 111.6 56.7 111.6 56.8C111.6 56.9 111.6 57 111.5 57.1L108.2 60.9L111.6 65Z" fill="white"/>
<path d="M117.8 66C116.7 66 115.8 65.8 114.9 65.5C114.1 65.1 113.4 64.6 112.9 63.9C112.4 63.2 112.2 62.3 112.2 61.3C112.2 59.7 112.7 58.4 113.6 57.6C114.5 56.7 115.9 56.3 117.6 56.3C119.3 56.3 120.6 56.7 121.4 57.6C122.3 58.4 122.7 59.6 122.7 61.1C122.7 61.7 122.4 62.1 121.9 62.1H115.9C115.9 62.7 116.1 63.1 116.5 63.4C116.9 63.7 117.6 63.8 118.4 63.8C118.9 63.8 119.4 63.8 119.7 63.7C120.1 63.6 120.4 63.4 120.8 63.3C121 63.2 121.1 63.2 121.1 63.2C121.2 63.2 121.3 63.3 121.4 63.4L122.1 64.6C122.2 64.7 122.2 64.8 122.2 64.9C122.2 65 122.1 65.1 122 65.2C121.5 65.5 120.9 65.8 120.2 66C119.4 65.9 118.7 66 117.8 66ZM119.3 60C119.3 59.5 119.2 59.1 118.9 58.9C118.6 58.6 118.2 58.5 117.6 58.5C117 58.5 116.6 58.6 116.3 58.9C116 59.2 115.9 59.5 115.9 60H119.3Z" fill="white"/>
<path d="M129.4 66C128.3 66 127.3 65.9 126.3 65.7C125.3 65.5 124.6 65.1 124 64.7C123.8 64.6 123.7 64.4 123.7 64.3C123.7 64.2 123.7 64.1 123.8 64L124.7 62.5C124.8 62.3 124.9 62.3 125 62.3C125.1 62.3 125.2 62.3 125.3 62.4C125.8 62.7 126.3 62.9 126.9 63.1C127.5 63.3 128.1 63.4 128.7 63.4C129.3 63.4 129.7 63.3 130 63.1C130.3 62.9 130.4 62.6 130.4 62.2C130.4 61.8 130.2 61.5 129.9 61.3C129.6 61.1 129 60.8 128.1 60.5C126.8 60 125.8 59.5 125.1 58.9C124.4 58.3 124 57.4 124 56.4C124 55.1 124.5 54.2 125.4 53.5C126.3 52.8 127.5 52.5 129 52.5C130.1 52.5 131 52.6 131.7 52.8C132.5 53 133.1 53.3 133.6 53.6C133.8 53.8 133.9 53.9 133.9 54.1C133.9 54.2 133.9 54.3 133.8 54.4L132.9 55.9C132.8 56.1 132.7 56.1 132.6 56.1C132.5 56.1 132.4 56.1 132.3 56C131.6 55.5 130.7 55.3 129.6 55.3C129 55.3 128.6 55.4 128.3 55.6C128 55.8 127.9 56.1 127.9 56.5C127.9 56.8 128 57 128.1 57.2C128.3 57.4 128.5 57.5 128.7 57.7C129 57.8 129.4 58 129.9 58.2L130.3 58.3C131.2 58.7 132 59 132.5 59.4C133.1 59.7 133.5 60.2 133.8 60.7C134.1 61.2 134.2 61.8 134.2 62.5C134.2 63.6 133.8 64.6 132.9 65.2C132.3 65.6 131 66 129.4 66Z" fill="white"/>
<path d="M138.5 65.7C138.3 65.7 138.2 65.7 138.1 65.6C138 65.5 137.9 65.4 137.9 65.2L135.4 56.9C135.4 56.8 135.4 56.8 135.4 56.7C135.4 56.5 135.5 56.4 135.8 56.4H138.3C138.5 56.4 138.6 56.4 138.7 56.5C138.8 56.6 138.8 56.6 138.9 56.8L139.9 61.2L141.2 57.7C141.3 57.5 141.3 57.4 141.4 57.4C141.5 57.3 141.6 57.3 141.8 57.3H143C143.2 57.3 143.3 57.3 143.4 57.4C143.5 57.5 143.5 57.6 143.6 57.7L144.9 61.2L146 56.8C146 56.7 146.1 56.6 146.2 56.5C146.3 56.4 146.4 56.4 146.5 56.4H149.1C149.4 56.4 149.5 56.5 149.5 56.7C149.5 56.7 149.5 56.8 149.5 56.9L147 65.2C146.9 65.4 146.9 65.5 146.8 65.6C146.7 65.7 146.6 65.7 146.4 65.7H144.5C144.3 65.7 144.2 65.7 144.1 65.6C144 65.5 143.9 65.4 143.9 65.2L142.6 61.7L141.3 65.2C141.2 65.4 141.2 65.5 141.1 65.6C141 65.7 140.9 65.7 140.7 65.7H138.5Z" fill="white"/>
<path d="M154.1 66C152.9 66 151.9 65.6 151.2 64.8C150.5 64 150.1 62.9 150.1 61.5C150.1 60.4 150.3 59.5 150.8 58.7C151.3 57.9 152 57.3 152.9 56.8C153.8 56.4 154.9 56.1 156 56.1C157 56.1 157.8 56.2 158.6 56.4C159.4 56.6 160 56.9 160.7 57.3V65C160.7 65.2 160.7 65.4 160.6 65.5C160.5 65.6 160.3 65.6 160.1 65.6H158.1C158 65.6 157.9 65.6 157.8 65.5C157.7 65.4 157.7 65.4 157.6 65.3L157.3 64.7C156.9 65.1 156.5 65.4 156 65.6C155.5 65.9 154.9 66 154.1 66ZM155.6 63.4C156.1 63.4 156.5 63.3 156.8 63C157.1 62.8 157.2 62.4 157.2 62V59C157 58.9 156.6 58.8 156.3 58.8C155.6 58.8 155.1 59 154.7 59.5C154.3 60 154.1 60.6 154.1 61.5C154 62.7 154.5 63.4 155.6 63.4Z" fill="white"/>
<path d="M163.4 69.6C163 69.6 162.8 69.5 162.6 69.4C162.5 69.2 162.4 69 162.4 68.7V57.7C163 57.3 163.7 56.9 164.6 56.7C165.5 56.4 166.4 56.3 167.3 56.3C171.2 56.3 173.1 57.9 173.1 61.2C173.1 62.7 172.7 63.9 171.9 64.8C171.1 65.7 169.9 66.1 168.4 66.1C168 66.1 167.6 66 167.2 65.9C166.8 65.8 166.5 65.7 166.2 65.5V68.7C166.2 69 166.1 69.3 166 69.4C165.8 69.6 165.6 69.6 165.2 69.6H163.4V69.6ZM167.6 63.4C168.2 63.4 168.6 63.2 168.8 62.8C169.1 62.4 169.2 61.8 169.2 61.1C169.2 60.3 169 59.7 168.7 59.3C168.4 59 167.9 58.8 167.2 58.8C166.8 58.8 166.4 58.9 166.2 59V62C166.2 62.4 166.3 62.8 166.6 63C166.8 63.3 167.2 63.4 167.6 63.4Z" fill="white"/>
<path fill-rule="evenodd" clip-rule="evenodd" d="M17.5 50.4C17.1 48.4 18.7 46.5 20.7 46.5C22.5 46.5 24 48 24 49.8V53.8C24.5 53.8 24.9 53.8 25.4 53.8C25.8 53.8 26.3 53.8 26.7 53.8V49.8C26.7 48 28.2 46.5 30 46.5C32 46.5 33.6 48.4 33.2 50.4L32.3 55.1C35.3 56.4 37.6 58.7 37.6 61.6V63.3C37.6 65.7 36 67.7 33.8 69C31.6 70.4 28.6 71.2 25.3 71.2C22 71.2 19 70.4 16.8 69C14.6 67.7 13 65.7 13 63.3V61.6C13 58.7 15.3 56.4 18.3 55.1L17.5 50.4ZM31.2 55.8L32.2 50.3C32.5 48.9 31.4 47.6 30 47.6C28.7 47.6 27.7 48.6 27.7 49.9V55C27.4 55 27 54.9 26.7 54.9C26.3 54.9 25.8 54.9 25.4 54.9C24.9 54.9 24.5 54.9 24 55C23.7 55 23.3 55.1 23 55.1V50C23 48.7 22 47.7 20.7 47.7C19.3 47.7 18.2 49 18.5 50.4L19.5 56C16.3 57.2 14.1 59.4 14.1 61.9V63.6C14.1 67.4 19.1 70.5 25.3 70.5C31.5 70.5 36.5 67.4 36.5 63.6V61.9C36.6 59.2 34.4 57 31.2 55.8Z" fill="#633001"/>
<path d="M36.6 63.4C36.6 67.2 31.6 70.3 25.4 70.3C19.2 70.3 14.2 67.2 14.2 63.4V61.7H36.7V63.4H36.6Z" fill="#FEDC90"/>
<path fill-rule="evenodd" clip-rule="evenodd" d="M18.5 50.2C18.2 48.8 19.3 47.5 20.7 47.5C22 47.5 23 48.5 23 49.8V55C23.8 54.9 24.6 54.8 25.4 54.8C26.2 54.8 27 54.9 27.7 54.9V49.8C27.7 48.5 28.7 47.5 30 47.5C31.4 47.5 32.5 48.8 32.2 50.2L31.2 55.7C34.5 56.9 36.7 59.1 36.7 61.6C36.7 65.4 31.7 68.5 25.5 68.5C19.3 68.5 14.3 65.4 14.3 61.6C14.3 59.1 16.5 56.9 19.7 55.7L18.5 50.2Z" fill="#D1884F"/>
<path d="M22.3 61.2C22.3 62.2 21.7 63.1 21.1 63.1C20.5 63.1 19.9 62.3 19.9 61.2C19.9 60.2 20.5 59.3 21.1 59.3C21.7 59.3 22.3 60.1 22.3 61.2Z" fill="#633001"/>
<path d="M30.9 61.2C30.9 62.2 30.3 63.1 29.7 63.1C29 63.1 28.5 62.3 28.5 61.2C28.5 60.2 29.1 59.3 29.7 59.3C30.3 59.3 30.9 60.1 30.9 61.2Z" fill="#633001"/>
</svg>
