<svg width="652" height="652" viewBox="0 0 652 652" fill="none" xmlns="http://www.w3.org/2000/svg">
<path d="M226.7 320.4C226 302.4 240.1 287.3 258.1 286.6H259.4C276 286.6 285.8 296.3 288.7 307.7L278.3 311.2C276.4 302.4 268.3 296.3 259.4 297C248.7 297 237.9 304.8 237.9 320.6C237.9 336.4 248.4 343.9 259.5 343.9C268.5 344.1 276.5 338.2 278.9 329.6L289 332.9C285.4 346.1 273.1 355.1 259.4 354.4C241.6 354.7 226.9 340.6 226.6 322.8C226.6 322 226.6 321.2 226.7 320.4Z" fill="white"/>
<path d="M309.2 352.9H298.3V286.4H309.2V312.5C312.3 308.8 317 306.7 321.9 306.9C332.9 306.9 338.3 314.8 338.3 324.6V352.9H327.7V326.4C328.4 321.7 325.1 317.3 320.4 316.6C319.8 316.5 319.1 316.5 318.5 316.6C313.4 316.6 309.2 320.8 309.2 325.9C309.2 326.2 309.2 326.4 309.2 326.7V352.9Z" fill="white"/>
<path d="M361.9 327.3L373.4 325.5C376 325.2 376.7 323.8 376.7 322.3C376.7 318.5 374.2 315.5 368.2 315.5C363.6 315.1 359.5 318.5 359 323.1V323.5L349.3 321.3C350.1 313.6 357.1 306.7 368.1 306.7C381.9 306.7 387.1 314.5 387.1 323.6V345.8C387.1 348.2 387.2 350.6 387.7 353H377.8C377.4 351.1 377.3 349.2 377.4 347.3C374.4 351.9 369.1 354.6 363.6 354.4C355.9 355 349.2 349.4 348.4 341.7V341C348.3 332.7 354.2 328.4 361.9 327.3ZM376.6 334.5V332.5L364.9 334.2C361.6 334.3 359 337 358.9 340.3C358.9 343.6 361.6 346.2 364.9 346.1H365.4C371 346.8 376.1 342.7 376.7 337.1C376.7 337 376.7 337 376.7 336.9C376.9 336.1 376.8 335.3 376.6 334.5Z" fill="white"/>
<path d="M405.2 285.5C409 285.5 412.2 288.5 412.3 292.4C412.3 296.2 409.2 299.3 405.4 299.4C401.6 299.4 398.5 296.3 398.4 292.5C398.3 288.6 401.4 285.5 405.2 285.5ZM400 353.1V308.2H410.7V352.9L400 353.1Z" fill="white"/>
<path d="M434.9 352.9H424.2V308.2H434.6V314.2C437.4 309.6 442.4 306.8 447.8 306.9C458.7 306.9 463.9 314.8 463.9 324.6V352.9H453.3V326.4C453.3 320.9 450.8 316.5 444.1 316.5C438.9 316.5 434.7 320.8 434.7 326C434.7 326.4 434.7 326.7 434.7 327.1L434.9 352.9Z" fill="white"/>
<path d="M487.6 286.4H477V352.9H487.6V286.4Z" fill="white"/>
<path d="M506.7 285.5C510.5 285.5 513.6 288.6 513.7 292.4C513.7 296.2 510.6 299.3 506.8 299.4C503 299.4 499.9 296.3 499.8 292.5V292.4C499.8 288.6 502.8 285.5 506.7 285.5ZM501.4 353.1V308.2H512V352.9L501.4 353.1Z" fill="white"/>
<path d="M536.4 352.9H525.8V308.2H536.2V314.2C539 309.6 544 306.8 549.4 306.9C560.3 306.9 565.6 314.8 565.6 324.6V352.9H555V326.4C555.7 321.7 552.4 317.3 547.7 316.6C547.1 316.5 546.4 316.5 545.8 316.6C540.6 316.6 536.4 320.8 536.5 326C536.5 326.4 536.5 326.8 536.5 327.1L536.4 352.9Z" fill="white"/>
<path d="M601.9 327L620.7 352.9H607.6L594.5 334.4L589 340.2V352.9H578.4V286.4H589V326.2L606.2 308.2H620.3L601.9 327Z" fill="white"/>
<path d="M100.5 268.4L146.6 294.9V348L100.7 374.6L54.6 348.4V295.1L100.5 268.4ZM100.5 229.4L83.6 239.2L37.6 265.9L20.7 275.7V367.8L37.6 377.5L83.7 403.9L100.6 413.6L117.5 403.8L163.4 377.1L180.3 367.3V275.1L163.4 265.4L117.3 238.9L100.5 229.4Z" fill="white"/>
</svg>
