<svg width="216" height="52" viewBox="0 0 216 52" fill="none" xmlns="http://www.w3.org/2000/svg">
<path d="M120 6.8975V22.3138C119.239 22.8958 118.442 23.4286 117.614 23.9089V8.46393H116.602V24.4389C115.245 25.1414 113.819 25.7022 112.347 26.1124V11.9884H111.114V26.4465C110.154 26.6593 109.181 26.811 108.202 26.9008V2.96316H105.782V27C104.861 26.9944 103.942 26.9325 103.03 26.8146V14.0352H100.377V26.3055C98.3653 25.8092 96.4308 25.0415 94.6267 24.0238V9.56043H93.184V23.1544C92.7815 22.8933 92.3842 22.5957 92 22.3112V8.725H94.7025V3.78814H99.1692V20.5228L99.7678 20.2617V13.3877H104.287V18.805L105.207 18.5648V2.94488L107.637 0L109.87 2.87178V11.6177H112.807V17.1968H113.573V9.3333H116.153V6.8975H120Z" fill="#36CDC6"/>
<path d="M15.712 40V50.624C15.5733 50.7627 15.4506 50.8907 15.344 51.008C15.2373 51.1147 15.1306 51.2213 15.024 51.328C14.9173 51.424 14.8106 51.5307 14.704 51.648C14.5973 51.7547 14.4746 51.872 14.336 52H12.496V42H9.82397V50.624C9.5573 50.9013 9.32797 51.136 9.13597 51.328C8.95464 51.5093 8.7253 51.7333 8.44797 52H6.60797V42H3.93597V52H0.719971V41.376L2.09597 40H15.712Z" fill="white"/>
<path d="M29.5095 40V49.968L27.4775 52H19.7975V42.032L21.8295 40H29.5095ZM23.0135 50H26.2935V42H23.0135V50Z" fill="white"/>
<path d="M43.2138 40V49.968L41.1818 52H33.5018V42.032L35.5338 40H43.2138ZM36.7178 50H39.9978V42H36.7178V50Z" fill="white"/>
<path d="M55.8537 40L56.7657 40.912V52H54.3497C54.1897 51.8507 54.0511 51.7227 53.9337 51.616C53.8271 51.4987 53.6991 51.36 53.5497 51.2V46.832L50.2697 43.44V51.088L49.3577 52H47.0537V40H50.2697L53.5497 43.344V40H55.8537Z" fill="white"/>
<path d="M83.1375 40L84.0495 40.912V52H81.6335C81.4735 51.8507 81.3348 51.7227 81.2175 51.616C81.1108 51.4987 80.9828 51.36 80.8335 51.2V46.832L77.5535 43.44V51.088L76.6415 52H74.3375V40H77.5535L80.8335 43.344V40H83.1375Z" fill="white"/>
<path d="M97.8438 50.624C97.7052 50.7627 97.5772 50.8853 97.4598 50.992C97.3532 51.0987 97.2465 51.2053 97.1398 51.312C97.0438 51.4187 96.9372 51.5253 96.8198 51.632C96.7132 51.7387 96.5958 51.8613 96.4678 52H94.6278V48.288H91.3478V52H88.1318V42.032C88.3345 41.84 88.5158 41.664 88.6758 41.504C88.8358 41.3333 88.9905 41.1733 89.1398 41.024C89.2998 40.864 89.4598 40.704 89.6198 40.544C89.7905 40.384 89.9718 40.2027 90.1638 40H97.8438V50.624ZM91.3478 46.288H94.6278V42H91.3478V46.288Z" fill="white"/>
<path d="M111.221 40V41.088L110.309 42H107.957V52H105.813L104.741 50.928V42H101.509V40.912L102.421 40H111.221Z" fill="white"/>
<path d="M117.883 40V50.624C117.617 50.9013 117.387 51.136 117.195 51.328C117.014 51.5093 116.785 51.7333 116.507 52H114.667V41.376C114.934 41.0987 115.158 40.8693 115.339 40.688C115.531 40.496 115.766 40.2667 116.043 40H117.883Z" fill="white"/>
<path d="M131.676 40V49.968L129.644 52H121.964V42.032L123.996 40H131.676ZM125.18 50H128.46V42H125.18V50Z" fill="white"/>
<path d="M144.316 40L145.228 40.912V52H142.812C142.652 51.8507 142.513 51.7227 142.396 51.616C142.289 51.4987 142.161 51.36 142.012 51.2V46.832L138.732 43.44V51.088L137.82 52H135.516V40H138.732L142.012 43.344V40H144.316Z" fill="white"/>
<path d="M165.855 42V50H167.919V44.688H170.831V52H164.671L162.639 49.968V40H169.935C170.117 40.1813 170.266 40.336 170.383 40.464C170.501 40.5813 170.65 40.7307 170.831 40.912V42H165.855Z" fill="white"/>
<path d="M184.54 50.624C184.401 50.7627 184.273 50.8853 184.156 50.992C184.049 51.0987 183.943 51.2053 183.836 51.312C183.74 51.4187 183.633 51.5253 183.516 51.632C183.409 51.7387 183.292 51.8613 183.164 52H181.324V48.288H178.044V52H174.828V42.032C175.031 41.84 175.212 41.664 175.372 41.504C175.532 41.3333 175.687 41.1733 175.836 41.024C175.996 40.864 176.156 40.704 176.316 40.544C176.487 40.384 176.668 40.2027 176.86 40H184.54V50.624ZM178.044 46.288H181.324V42H178.044V46.288Z" fill="white"/>
<path d="M203.604 40V50.624C203.466 50.7627 203.343 50.8907 203.236 51.008C203.13 51.1147 203.023 51.2213 202.916 51.328C202.81 51.424 202.703 51.5307 202.596 51.648C202.49 51.7547 202.367 51.872 202.228 52H200.388V42H197.716V50.624C197.45 50.9013 197.22 51.136 197.028 51.328C196.847 51.5093 196.618 51.7333 196.34 52H194.5V42H191.828V52H188.612V41.376L189.988 40H203.604Z" fill="white"/>
<path d="M210.906 42V44.688H214.778V45.792L213.866 46.704H210.906V50H215.882V52H209.722L207.69 49.968V40H214.986C215.167 40.1813 215.317 40.336 215.434 40.464C215.551 40.5813 215.701 40.7307 215.882 40.912V42H210.906Z" fill="white"/>
</svg>
