<svg width="1126" height="1154" viewBox="0 0 1126 1154" fill="none" xmlns="http://www.w3.org/2000/svg">
<path opacity="0.0344828" d="M143.286 268.32C148.734 261.827 156.941 257.812 167.702 256.198C178.471 254.583 191.739 255.383 207.2 258.473C238.119 264.653 277.61 279.951 323 303.042C413.766 349.217 527.934 426.457 643.971 523.824C760.009 621.192 855.9 720.213 917.135 801.581C947.757 842.272 969.68 878.506 981.136 907.883C986.864 922.571 989.956 935.499 990.235 946.385C990.514 957.263 987.985 966.042 982.537 972.536C977.088 979.029 968.882 983.044 958.121 984.658C947.352 986.273 934.083 985.473 918.623 982.383C887.703 976.203 848.213 960.905 802.823 937.814C712.057 891.639 597.889 814.399 481.851 717.032C365.813 619.664 269.922 520.643 208.687 439.275C178.065 398.584 156.142 362.35 144.687 332.973C138.959 318.284 135.867 305.356 135.587 294.471C135.308 283.593 137.837 274.814 143.286 268.32Z" stroke="#79FFF9" stroke-opacity="0.17" stroke-width="1.88593"/>
<path opacity="0.0689655" d="M175.57 228.708C181.564 222.714 190.089 219.43 200.95 218.76C211.819 218.089 224.967 220.043 240.099 224.468C270.363 233.32 308.369 252.001 351.574 278.961C437.97 332.871 544.972 419.767 652.082 526.877C759.192 633.987 846.088 740.989 899.998 827.385C926.958 870.59 945.639 908.596 954.491 938.86C958.916 953.992 960.87 967.14 960.199 978.009C959.529 988.87 956.245 997.395 950.251 1003.39C944.258 1009.38 935.733 1012.67 924.872 1013.34C914.003 1014.01 900.854 1012.05 885.722 1007.63C855.459 998.777 817.452 980.095 774.248 953.136C687.851 899.226 580.85 812.33 473.74 705.219C366.629 598.109 279.733 491.108 225.823 404.712C198.864 361.507 180.182 323.5 171.331 293.237C166.905 278.105 164.952 264.956 165.622 254.087C166.292 243.226 169.576 234.702 175.57 228.708Z" stroke="#79FFF9" stroke-opacity="0.17" stroke-width="1.88593"/>
<path opacity="0.103448" d="M210.803 192.042C217.297 186.593 226.075 184.064 236.953 184.343C247.839 184.623 260.767 187.715 275.456 193.443C304.833 204.898 341.067 226.821 381.758 257.443C463.126 318.678 562.147 414.569 659.515 530.607C756.882 646.645 834.122 760.813 880.297 851.579C903.388 896.969 918.686 936.459 924.866 967.378C927.956 982.839 928.756 996.107 927.141 1006.88C925.527 1017.64 921.512 1025.84 915.019 1031.29C908.525 1036.74 899.746 1039.27 888.868 1038.99C877.982 1038.71 865.054 1035.62 850.366 1029.89C820.989 1018.44 784.755 996.513 744.064 965.891C662.695 904.656 563.674 808.765 466.307 692.727C368.94 576.689 291.7 462.521 245.525 371.755C222.434 326.366 207.136 286.875 200.956 255.956C197.866 240.495 197.066 227.227 198.681 216.458C200.295 205.696 204.31 197.49 210.803 192.042Z" stroke="#79FFF9" stroke-opacity="0.17" stroke-width="1.88593"/>
<path opacity="0.137931" d="M248.716 158.569C255.659 153.707 264.625 151.953 275.437 153.179C286.257 154.406 298.867 158.614 313 165.6C341.267 179.572 375.452 204.569 413.319 238.621C489.041 306.715 579.328 410.872 666.212 534.954C753.095 659.036 820.09 779.502 858.179 873.947C877.226 921.176 889.024 961.85 892.486 993.19C894.217 1008.86 893.857 1022.15 891.31 1032.74C888.764 1043.32 884.049 1051.14 877.106 1056C870.162 1060.86 861.196 1062.62 850.384 1061.39C839.564 1060.17 826.954 1055.96 812.821 1048.97C784.554 1035 750.369 1010 712.502 975.951C636.78 907.857 546.493 803.701 459.61 679.618C372.726 555.536 305.731 435.07 267.642 340.625C248.595 293.396 236.797 252.722 233.335 221.382C231.605 205.711 231.964 192.423 234.511 181.836C237.057 171.256 241.772 163.431 248.716 158.569Z" stroke="#79FFF9" stroke-opacity="0.17" stroke-width="1.88593"/>
<path opacity="0.172414" d="M289.02 128.512C296.36 124.274 305.445 123.308 316.109 125.472C326.781 127.637 338.976 132.927 352.447 141.119C379.388 157.501 411.265 185.383 446.02 222.606C515.519 297.04 596.384 408.669 672.123 539.852C747.861 671.035 804.102 796.881 833.814 894.286C848.673 942.996 856.881 984.543 857.598 1016.07C857.956 1031.83 856.44 1045.03 852.98 1055.36C849.522 1065.68 844.143 1073.06 836.802 1077.3C829.461 1081.54 820.376 1082.5 809.712 1080.34C799.04 1078.17 786.845 1072.88 773.374 1064.69C746.433 1048.31 714.557 1020.43 679.802 983.205C610.302 908.771 529.437 797.142 453.699 665.959C377.96 534.777 321.719 408.931 292.007 311.525C277.149 262.815 268.941 221.269 268.224 189.745C267.865 173.983 269.381 160.777 272.842 150.453C276.3 140.135 281.679 132.751 289.02 128.512Z" stroke="#79FFF9" stroke-opacity="0.17" stroke-width="1.88593"/>
<path opacity="0.206897" d="M331.408 102.064C339.09 98.482 348.225 98.3115 358.66 101.397C369.102 104.484 380.79 110.817 393.495 120.151C418.906 138.819 448.232 169.373 479.61 209.483C542.358 289.692 613.186 407.944 677.203 545.228C741.219 682.513 786.278 812.782 807.388 912.406C817.945 962.226 822.5 1004.33 820.467 1035.8C819.451 1051.53 816.79 1064.55 812.442 1074.54C808.098 1084.51 802.096 1091.4 794.414 1094.98C786.731 1098.57 777.597 1098.74 767.162 1095.65C756.719 1092.56 745.032 1086.23 732.326 1076.9C706.915 1058.23 677.59 1027.67 646.212 987.564C583.464 907.356 512.636 789.103 448.619 651.819C384.602 514.534 339.543 384.266 318.433 284.641C307.877 234.822 303.321 192.718 305.354 161.252C306.371 145.519 309.032 132.495 313.379 122.511C317.724 112.534 323.726 105.647 331.408 102.064Z" stroke="#79FFF9" stroke-opacity="0.17" stroke-width="1.88593"/>
<path opacity="0.241379" d="M375.558 79.3945C383.524 76.4953 392.638 77.1215 402.764 81.1043C412.898 85.09 423.989 92.4173 435.833 102.824C459.52 123.636 486.071 156.629 513.834 199.321C569.352 284.693 629.605 408.669 681.413 551.01C733.221 693.352 766.755 827.052 779.101 928.137C785.275 978.687 786.144 1021.03 781.377 1052.2C778.993 1067.78 775.206 1080.52 770.005 1090.09C764.808 1099.65 758.229 1105.99 750.263 1108.89C742.298 1111.79 733.184 1111.16 723.057 1107.18C712.923 1103.19 701.833 1095.87 689.989 1085.46C666.301 1064.65 639.751 1031.65 611.987 988.961C556.469 903.59 496.217 779.614 444.409 637.273C392.601 494.931 359.067 361.231 346.72 260.146C340.546 209.596 339.677 167.255 344.445 136.086C346.829 120.501 350.615 107.759 355.816 98.192C361.013 88.6318 367.593 82.2936 375.558 79.3945Z" stroke="#79FFF9" stroke-opacity="0.17" stroke-width="1.88593"/>
<path opacity="0.275862" d="M421.134 60.6465C429.322 58.4526 438.347 59.8708 448.088 64.721C457.836 69.5747 468.246 77.8408 479.138 89.2398C500.921 112.037 524.495 147.219 548.432 192.169C596.298 282.054 645.516 410.809 684.721 557.125C723.926 703.44 745.679 839.554 749.169 941.33C750.914 992.226 748.089 1034.48 740.623 1065.12C736.89 1080.43 732.007 1092.8 725.992 1101.88C719.982 1110.95 712.875 1116.69 704.687 1118.88C696.499 1121.07 687.474 1119.66 677.734 1114.81C667.986 1109.95 657.576 1101.69 646.684 1090.29C624.901 1067.49 601.327 1032.31 577.39 987.358C529.524 897.473 480.306 768.718 441.101 622.402C401.895 476.087 380.142 339.973 376.653 238.197C374.908 187.301 377.732 145.045 385.198 114.411C388.932 99.093 393.814 86.7293 399.829 77.6519C405.84 68.5811 412.947 62.8404 421.134 60.6465Z" stroke="#79FFF9" stroke-opacity="0.17" stroke-width="1.88593"/>
<path opacity="0.310345" d="M467.789 45.922C476.137 44.4501 485.004 46.6494 494.285 52.3302C503.573 58.015 513.223 67.1569 523.08 79.4618C542.793 104.071 563.211 141.174 583.139 188.038C622.989 281.754 660.798 414.309 687.102 563.484C713.405 712.659 723.213 850.151 717.819 951.845C715.121 1002.7 708.625 1044.55 698.517 1074.41C693.463 1089.35 687.522 1101.24 680.738 1109.76C673.96 1118.27 666.38 1123.37 658.032 1124.84C649.684 1126.31 640.817 1124.11 631.536 1118.43C622.248 1112.75 612.598 1103.61 602.741 1091.3C583.028 1066.69 562.61 1029.59 542.682 982.726C502.832 889.011 465.023 756.456 438.719 607.28C412.416 458.105 402.608 320.613 408.002 218.92C410.7 168.065 417.196 126.217 427.304 96.3496C432.358 81.4155 438.299 69.5245 445.083 61.0058C451.861 52.4934 459.441 47.394 467.789 45.922Z" stroke="#79FFF9" stroke-opacity="0.17" stroke-width="1.88593"/>
<path opacity="0.344828" d="M515.169 35.3044C523.613 34.5657 532.255 37.5295 541.005 43.9975C549.762 50.4702 558.579 60.4183 567.326 73.5355C584.819 99.769 601.926 138.51 617.694 186.933C649.224 283.765 675.336 419.111 688.538 570.011C701.74 720.911 699.527 858.735 685.291 959.571C678.171 1010 668.052 1051.12 655.379 1079.99C649.043 1094.43 642.088 1105.76 634.588 1113.65C627.093 1121.54 619.098 1125.96 610.653 1126.7C602.209 1127.44 593.568 1124.47 584.817 1118.01C576.06 1111.53 567.243 1101.59 558.496 1088.47C541.003 1062.24 523.896 1023.49 508.129 975.071C476.598 878.239 450.486 742.893 437.284 591.993C424.082 441.093 426.295 303.269 440.532 202.433C447.651 152.007 457.77 110.884 470.443 82.0116C476.779 67.5749 483.734 56.2469 491.234 48.3519C498.729 40.4626 506.724 36.0432 515.169 35.3044Z" stroke="#79FFF9" stroke-opacity="0.17" stroke-width="1.88593"/>
<path opacity="0.37931" d="M562.911 28.8369C571.387 28.8369 579.738 32.5426 587.892 39.7487C596.051 46.96 603.967 57.6387 611.537 71.4683C626.678 99.1266 640.343 139.211 651.83 188.825C674.801 288.036 689.018 425.143 689.018 576.619C689.018 728.096 674.801 865.202 651.83 964.414C640.343 1014.03 626.678 1054.11 611.537 1081.77C603.967 1095.6 596.051 1106.28 587.892 1113.49C579.738 1120.7 571.387 1124.4 562.911 1124.4C554.434 1124.4 546.084 1120.7 537.93 1113.49C529.771 1106.28 521.855 1095.6 514.284 1081.77C499.144 1054.11 485.479 1014.03 473.992 964.414C451.021 865.202 436.804 728.096 436.804 576.619C436.804 425.143 451.021 288.036 473.992 188.825C485.479 139.211 499.144 99.1266 514.284 71.4683C521.855 57.6387 529.771 46.96 537.93 39.7487C546.084 32.5426 554.434 28.8369 562.911 28.8369Z" stroke="#79FFF9" stroke-opacity="0.17" stroke-width="1.88593"/>
<path opacity="0.413793" d="M610.653 26.5391C619.097 27.2779 627.093 31.6973 634.588 39.5865C642.088 47.4816 649.043 58.8095 655.379 73.2463C668.051 102.119 678.171 143.242 685.29 193.668C699.527 294.504 701.74 432.328 688.538 583.228C675.336 734.128 649.224 869.474 617.693 966.306C601.926 1014.73 584.819 1053.47 567.325 1079.7C558.578 1092.82 549.762 1102.77 541.005 1109.24C532.254 1115.71 523.613 1118.67 515.168 1117.93C506.724 1117.2 498.728 1112.78 491.234 1104.89C483.734 1096.99 476.779 1085.66 470.442 1071.23C457.77 1042.35 447.651 1001.23 440.531 950.806C426.294 849.97 424.081 712.146 437.283 561.246C450.486 410.346 476.598 275 508.128 178.168C523.896 129.745 541.003 91.0037 558.496 64.7702C567.243 51.653 576.06 41.7049 584.817 35.2321C593.567 28.7641 602.209 25.8003 610.653 26.5391Z" stroke="#79FFF9" stroke-opacity="0.17" stroke-width="1.88593"/>
<path opacity="0.448276" d="M658.032 28.3952C666.38 29.8671 673.96 34.9666 680.739 43.479C687.522 51.9976 693.463 63.8887 698.517 78.8228C708.625 108.69 715.122 150.539 717.819 201.393C723.213 303.086 713.406 440.578 687.102 589.754C660.799 738.929 622.99 871.484 583.14 965.199C563.212 1012.06 542.794 1049.17 523.08 1073.78C513.223 1086.08 503.573 1095.22 494.285 1100.91C485.004 1106.59 476.137 1108.79 467.79 1107.32C459.442 1105.84 451.862 1100.74 445.083 1092.23C438.3 1083.71 432.359 1071.82 427.305 1056.89C417.197 1027.02 410.7 985.172 408.003 934.318C402.608 832.625 412.416 695.132 438.72 545.957C465.023 396.782 502.832 264.227 542.682 170.512C562.61 123.647 583.028 86.544 602.742 61.935C612.599 49.6301 622.249 40.4882 631.536 34.8033C640.818 29.1226 649.685 26.9233 658.032 28.3952Z" stroke="#79FFF9" stroke-opacity="0.17" stroke-width="1.88593"/>
<path opacity="0.482759" d="M704.687 34.3593C712.875 36.5532 719.982 42.2939 725.992 51.3647C732.008 60.4421 736.89 72.8057 740.623 88.1235C748.089 118.758 750.914 161.014 749.169 211.909C745.679 313.686 723.926 449.8 684.721 596.115C645.516 742.43 596.298 871.186 548.432 961.071C524.495 1006.02 500.921 1041.2 479.138 1064C468.246 1075.4 457.836 1083.67 448.088 1088.52C438.347 1093.37 429.322 1094.79 421.134 1092.59C412.947 1090.4 405.84 1084.66 399.829 1075.59C393.814 1066.51 388.932 1054.15 385.198 1038.83C377.732 1008.19 374.908 965.939 376.653 915.043C380.142 813.267 401.896 677.152 441.101 530.837C480.306 384.522 529.524 255.767 577.39 165.881C601.327 120.932 624.901 85.7498 646.684 62.9526C657.576 51.5536 667.986 43.2875 677.734 38.4338C687.475 33.5836 696.5 32.1654 704.687 34.3593Z" stroke="#79FFF9" stroke-opacity="0.17" stroke-width="1.88593"/>
<path opacity="0.517241" d="M750.263 44.3473C758.229 47.2464 764.808 53.5847 770.005 63.1449C775.206 72.712 778.993 85.4541 781.377 101.039C786.144 132.208 785.275 174.549 779.101 225.099C766.755 326.184 733.221 459.884 681.413 602.225C629.605 744.567 569.352 868.542 513.834 953.914C486.071 996.606 459.52 1029.6 435.833 1050.41C423.989 1060.82 412.898 1068.15 402.764 1072.13C392.638 1076.11 383.524 1076.74 375.558 1073.84C367.593 1070.94 361.014 1064.6 355.816 1055.04C350.615 1045.48 346.829 1032.73 344.445 1017.15C339.677 985.981 340.546 943.64 346.72 893.09C359.067 792.005 392.601 658.304 444.409 515.963C496.217 373.622 556.469 249.646 611.987 164.274C639.751 121.582 666.301 88.5884 689.989 67.7764C701.833 57.3701 712.923 50.0428 723.057 46.0571C733.184 42.0744 742.298 41.4482 750.263 44.3473Z" stroke="#79FFF9" stroke-opacity="0.17" stroke-width="1.88593"/>
<path opacity="0.551724" d="M794.414 58.2555C802.096 61.8378 808.098 68.7254 812.442 78.7022C816.79 88.6862 819.451 101.71 820.467 117.443C822.501 148.909 817.945 191.013 807.388 240.832C786.279 340.457 741.22 470.726 677.203 608.01C613.186 745.294 542.358 863.547 479.61 943.755C448.232 983.865 418.906 1014.42 393.495 1033.09C380.79 1042.42 369.102 1048.75 358.66 1051.84C348.225 1054.93 339.09 1054.76 331.408 1051.17C323.726 1047.59 317.724 1040.7 313.38 1030.73C309.032 1020.74 306.371 1007.72 305.354 991.986C303.321 960.521 307.877 918.417 318.433 868.597C339.543 768.973 384.602 638.704 448.619 501.42C512.636 364.135 583.464 245.883 646.212 165.675C677.59 125.564 706.915 95.0105 732.326 76.3422C745.032 67.0078 756.719 60.6749 767.162 57.5877C777.597 54.5026 786.731 54.6732 794.414 58.2555Z" stroke="#79FFF9" stroke-opacity="0.17" stroke-width="1.88593"/>
<path opacity="0.586207" d="M836.802 75.9395C844.143 80.1777 849.522 87.5622 852.98 97.8796C856.441 108.205 857.956 121.411 857.598 137.173C856.881 168.696 848.673 210.242 833.814 258.952C804.102 356.358 747.861 482.204 672.123 613.386C596.385 744.569 515.519 856.198 446.02 930.632C411.265 967.855 379.388 995.737 352.447 1012.12C338.976 1020.31 326.781 1025.6 316.109 1027.77C305.445 1029.93 296.361 1028.96 289.02 1024.73C281.679 1020.49 276.3 1013.1 272.842 1002.79C269.381 992.461 267.865 979.255 268.224 963.493C268.941 931.97 277.149 890.423 292.007 841.713C321.719 744.308 377.96 618.462 453.699 487.279C529.437 356.097 610.302 244.467 679.802 170.033C714.557 132.81 746.433 104.929 773.374 88.546C786.845 80.3545 799.04 75.0644 809.712 72.899C820.376 70.7352 829.461 71.7012 836.802 75.9395Z" stroke="#79FFF9" stroke-opacity="0.17" stroke-width="1.88593"/>
<path opacity="0.62069" d="M877.106 97.2351C884.049 102.097 888.764 109.922 891.31 120.502C893.858 131.089 894.217 144.377 892.486 160.048C889.024 191.388 877.226 232.062 858.179 279.291C820.091 373.736 753.095 494.202 666.212 618.284C579.328 742.366 489.042 846.523 413.319 914.617C375.453 948.669 341.267 973.666 313.001 987.638C298.867 994.625 286.258 998.832 275.437 1000.06C264.625 1001.28 255.659 999.531 248.716 994.669C241.772 989.807 237.057 981.982 234.512 971.402C231.964 960.815 231.605 947.527 233.336 931.856C236.797 900.516 248.595 859.842 267.642 812.613C305.731 718.168 372.726 597.702 459.61 473.62C546.493 349.538 636.78 245.381 712.502 177.287C750.369 143.235 784.554 118.238 812.821 104.266C826.955 97.2794 839.564 93.0722 850.384 91.8452C861.196 90.6191 870.162 92.3732 877.106 97.2351Z" stroke="#79FFF9" stroke-opacity="0.17" stroke-width="1.88593"/>
<path opacity="0.655172" d="M915.018 121.944C921.512 127.393 925.527 135.599 927.141 146.36C928.756 157.13 927.956 170.398 924.866 185.858C918.686 216.778 903.388 256.268 880.297 301.658C834.122 392.424 756.882 506.592 659.515 622.63C562.147 738.668 463.126 834.559 381.758 895.794C341.067 926.416 304.833 948.339 275.456 959.794C260.767 965.522 247.839 968.614 236.953 968.894C226.075 969.173 217.297 966.644 210.803 961.195C204.31 955.747 200.295 947.541 198.681 936.779C197.066 926.01 197.866 912.742 200.956 897.281C207.136 866.362 222.434 826.871 245.525 781.481C291.7 690.716 368.94 576.547 466.307 460.51C563.674 344.472 662.695 248.581 744.064 187.346C784.755 156.724 820.989 134.801 850.366 123.345C865.054 117.618 877.982 114.525 888.868 114.246C899.746 113.967 908.525 116.496 915.018 121.944Z" stroke="#79FFF9" stroke-opacity="0.17" stroke-width="1.88593"/>
<path opacity="0.689655" d="M950.252 149.849C956.245 155.842 959.53 164.367 960.2 175.228C960.87 186.097 958.917 199.245 954.491 214.378C945.639 244.641 926.958 282.648 899.999 325.852C846.089 412.249 759.192 519.25 652.082 626.36C544.972 733.47 437.97 820.367 351.574 874.277C308.37 901.236 270.363 919.917 240.1 928.769C224.967 933.195 211.819 935.148 200.95 934.478C190.089 933.808 181.564 930.523 175.57 924.53C169.577 918.536 166.292 910.011 165.622 899.15C164.952 888.281 166.905 875.133 171.331 860.001C180.183 829.737 198.864 791.73 225.823 748.526C279.733 662.13 366.63 555.128 473.74 448.018C580.85 340.908 687.852 254.012 774.248 200.101C817.452 173.142 855.459 154.461 885.722 145.609C900.855 141.184 914.003 139.23 924.872 139.9C935.733 140.57 944.258 143.855 950.252 149.849Z" stroke="#79FFF9" stroke-opacity="0.17" stroke-width="1.88593"/>
<path opacity="0.724138" d="M982.537 180.702C987.985 187.195 990.514 195.974 990.235 206.852C989.956 217.738 986.863 230.666 981.136 245.355C969.68 274.732 947.757 310.966 917.135 351.656C855.9 433.025 760.009 532.046 643.971 629.413C527.933 726.781 413.765 804.02 322.999 850.195C277.61 873.286 238.119 888.584 207.2 894.764C191.739 897.854 178.471 898.655 167.702 897.039C156.94 895.425 148.734 891.411 143.286 884.917C137.837 878.424 135.308 869.645 135.587 858.767C135.867 847.881 138.959 834.953 144.687 820.264C156.142 790.887 178.065 754.654 208.687 713.963C269.922 632.594 365.813 533.573 481.851 436.206C597.889 338.839 712.057 261.599 802.823 215.424C848.213 192.333 887.703 177.035 918.623 170.855C934.083 167.765 947.351 166.964 958.12 168.58C968.882 170.194 977.088 174.209 982.537 180.702Z" stroke="#79FFF9" stroke-opacity="0.17" stroke-width="1.88593"/>
<path opacity="0.758621" d="M1011.63 214.232C1016.49 221.176 1018.24 230.141 1017.02 240.954C1015.79 251.774 1011.58 264.383 1004.6 278.517C990.625 306.783 965.628 340.969 931.576 378.836C863.482 454.558 759.326 544.844 635.243 631.728C511.161 718.611 390.695 785.607 296.25 823.695C249.021 842.742 208.347 854.54 177.007 858.002C161.336 859.733 148.048 859.374 137.461 856.826C126.881 854.28 119.056 849.565 114.194 842.622C109.332 835.678 107.578 826.713 108.804 815.9C110.031 805.08 114.239 792.471 121.225 778.337C135.197 750.07 160.194 715.885 194.246 678.018C262.34 602.296 366.497 512.009 490.579 425.126C614.661 338.243 735.127 271.247 829.572 233.159C876.801 214.111 917.475 202.314 948.815 198.852C964.486 197.121 977.774 197.48 988.361 200.028C998.941 202.574 1006.77 207.288 1011.63 214.232Z" stroke="#79FFF9" stroke-opacity="0.17" stroke-width="1.88593"/>
<path opacity="0.793103" d="M1037.3 250.155C1041.54 257.496 1042.51 266.58 1040.34 277.245C1038.18 287.917 1032.89 300.111 1024.7 313.582C1008.32 340.524 980.433 372.4 943.211 407.155C868.777 476.654 757.147 557.52 625.965 633.258C494.782 708.996 368.936 765.237 271.531 794.95C222.821 809.808 181.274 818.016 149.751 818.733C133.989 819.092 120.783 817.576 110.458 814.115C100.14 810.657 92.756 805.278 88.5177 797.937C84.2795 790.596 83.3135 781.512 85.4773 770.847C87.6427 760.175 92.9328 747.981 101.124 734.51C117.507 707.568 145.389 675.692 182.611 640.937C257.045 571.438 368.675 490.572 499.857 414.834C631.04 339.096 756.886 282.854 854.291 253.142C903.001 238.284 944.548 230.076 976.071 229.359C991.833 229 1005.04 230.516 1015.36 233.977C1025.68 237.435 1033.07 242.814 1037.3 250.155Z" stroke="#79FFF9" stroke-opacity="0.17" stroke-width="1.88593"/>
<path opacity="0.827586" d="M1059.37 288.162C1062.95 295.845 1063.12 304.979 1060.04 315.414C1056.95 325.857 1050.62 337.544 1041.28 350.25C1022.62 375.661 992.061 404.986 951.951 436.364C871.743 499.112 753.49 569.94 616.206 633.957C478.922 697.974 348.653 743.033 249.028 764.143C199.209 774.699 157.105 779.255 125.639 777.222C109.906 776.205 96.8821 773.544 86.8981 769.197C76.9213 764.852 70.0337 758.85 66.4514 751.168C62.8691 743.486 62.6985 734.351 65.7836 723.916C68.8709 713.474 75.2037 701.786 84.5381 689.081C103.206 663.67 133.76 634.344 173.87 602.966C254.079 540.218 372.331 469.39 509.615 405.373C646.9 341.356 777.169 296.297 876.793 275.188C926.613 264.631 968.717 260.076 1000.18 262.109C1015.92 263.125 1028.94 265.786 1038.92 270.134C1048.9 274.478 1055.79 280.48 1059.37 288.162Z" stroke="#79FFF9" stroke-opacity="0.17" stroke-width="1.88593"/>
<path opacity="0.862069" d="M1077.66 327.932C1080.56 335.898 1079.93 345.012 1075.95 355.138C1071.96 365.272 1064.63 376.363 1054.23 388.207C1033.42 411.894 1000.42 438.445 957.731 466.208C872.359 521.726 748.383 581.979 606.042 633.787C463.7 685.595 330 719.129 228.915 731.475C178.365 737.649 136.024 738.518 104.855 733.751C89.2706 731.367 76.5285 727.58 66.9613 722.379C57.4011 717.182 51.0629 710.603 48.1638 702.637C45.2646 694.672 45.8908 685.558 49.8736 675.431C53.8593 665.297 61.1866 654.207 71.5929 642.363C92.4049 618.675 125.398 592.125 168.091 564.361C253.462 508.843 377.438 448.591 519.779 396.783C662.121 344.975 795.821 311.441 896.906 299.094C947.456 292.92 989.797 292.051 1020.97 296.819C1036.55 299.203 1049.29 302.989 1058.86 308.19C1068.42 313.388 1074.76 319.967 1077.66 327.932Z" stroke="#79FFF9" stroke-opacity="0.17" stroke-width="1.88593"/>
<path opacity="0.896552" d="M1092.03 369.127C1094.22 377.314 1092.8 386.339 1087.95 396.08C1083.1 405.828 1074.83 416.238 1063.43 427.13C1040.64 448.913 1005.46 472.487 960.506 496.424C870.62 544.29 741.865 593.508 595.55 632.713C449.235 671.918 313.12 693.672 211.344 697.161C160.448 698.906 118.193 696.082 87.558 688.615C72.2403 684.882 59.8767 680 50.7992 673.985C41.7284 667.974 35.9877 660.867 33.7938 652.68C31.5999 644.492 33.0181 635.467 37.8683 625.726C42.7221 615.978 50.9881 605.568 62.3871 594.676C85.1843 572.893 120.366 549.319 165.316 525.382C255.202 477.516 383.957 428.298 530.272 389.093C676.587 349.888 812.701 328.134 914.478 324.645C965.373 322.9 1007.63 325.725 1038.26 333.191C1053.58 336.924 1065.94 341.806 1075.02 347.821C1084.09 353.832 1089.83 360.939 1092.03 369.127Z" stroke="#79FFF9" stroke-opacity="0.17" stroke-width="1.88593"/>
<path opacity="0.931035" d="M1102.37 411.393C1103.84 419.741 1101.64 428.608 1095.96 437.889C1090.28 447.177 1081.14 456.827 1068.83 466.684C1044.22 486.397 1007.12 506.815 960.255 526.743C866.539 566.593 733.984 604.402 584.809 630.706C435.634 657.009 298.141 666.817 196.448 661.423C145.594 658.725 103.746 652.229 73.8782 642.121C58.9441 637.067 47.0531 631.126 38.5344 624.342C30.022 617.564 24.9226 609.984 23.4506 601.636C21.9787 593.288 24.178 584.421 29.8588 575.14C35.5436 565.852 44.6855 556.202 56.9904 546.345C81.5994 526.632 118.702 506.214 165.567 486.286C259.282 446.436 391.837 408.627 541.013 382.323C690.188 356.02 827.68 346.212 929.373 351.606C980.228 354.304 1022.08 360.8 1051.94 370.908C1066.88 375.962 1078.77 381.904 1087.29 388.687C1095.8 395.465 1100.9 403.045 1102.37 411.393Z" stroke="#79FFF9" stroke-opacity="0.17" stroke-width="1.88593"/>
<path opacity="0.965517" d="M1108.61 454.392C1109.35 462.837 1106.38 471.478 1099.92 480.229C1093.44 488.986 1083.49 497.802 1070.38 506.549C1044.14 524.043 1005.4 541.15 956.98 556.917C860.148 588.448 724.802 614.56 573.902 627.762C423.002 640.964 285.178 638.751 184.342 624.514C133.916 617.395 92.7931 607.275 63.9204 594.603C49.4836 588.267 38.1557 581.312 30.2606 573.812C22.3713 566.317 17.952 558.321 17.2132 549.877C16.4744 541.433 19.4382 532.791 25.9062 524.041C32.379 515.284 42.3271 506.467 55.4443 497.72C81.6778 480.226 120.419 463.12 168.842 447.352C265.674 415.822 401.02 389.709 551.92 376.507C702.82 363.305 840.644 365.518 941.48 379.755C991.906 386.875 1033.03 396.994 1061.9 409.666C1076.34 416.003 1087.67 422.958 1095.56 430.458C1103.45 437.952 1107.87 445.948 1108.61 454.392Z" stroke="#79FFF9" stroke-opacity="0.17" stroke-width="1.88593"/>
<path d="M1110.69 497.753C1110.69 506.23 1106.99 514.58 1099.78 522.734C1092.57 530.893 1081.89 538.809 1068.06 546.38C1040.4 561.52 1000.32 575.185 950.706 586.673C851.494 609.644 714.388 623.86 562.911 623.86C411.434 623.86 274.328 609.644 175.116 586.673C125.503 575.185 85.4185 561.52 57.7601 546.38C43.9305 538.809 33.2518 530.893 26.0405 522.734C18.8344 514.58 15.1288 506.23 15.1288 497.753C15.1288 489.277 18.8344 480.926 26.0405 472.773C33.2518 464.613 43.9305 456.697 57.7601 449.127C85.4185 433.986 125.503 420.321 175.116 408.834C274.328 385.863 411.434 371.646 562.911 371.646C714.388 371.646 851.494 385.863 950.706 408.834C1000.32 420.321 1040.4 433.986 1068.06 449.127C1081.89 456.697 1092.57 464.613 1099.78 472.773C1106.99 480.926 1110.69 489.277 1110.69 497.753Z" stroke="#79FFF9" stroke-opacity="0.17" stroke-width="1.88593"/>
</svg>
