<svg width="641" height="630" viewBox="0 0 641 630" fill="none" xmlns="http://www.w3.org/2000/svg">
<path opacity="0.0344828" d="M-341.714 -255.68C-336.266 -262.173 -328.059 -266.188 -317.298 -267.802C-306.529 -269.417 -293.261 -268.617 -277.8 -265.527C-246.881 -259.347 -207.39 -244.049 -162 -220.958C-71.2345 -174.783 42.9336 -97.543 158.971 -0.175729C275.009 97.1915 370.901 196.213 432.135 277.581C462.757 318.272 484.68 354.506 496.136 383.883C501.864 398.571 504.956 411.499 505.235 422.385C505.514 433.263 502.985 442.042 497.537 448.536C492.088 455.029 483.882 459.044 473.121 460.658C462.352 462.273 449.083 461.473 433.623 458.383C402.703 452.203 363.213 436.905 317.823 413.814C227.057 367.639 112.889 290.399 -3.14889 193.032C-119.187 95.6644 -215.078 -3.35662 -276.313 -84.7254C-306.935 -125.416 -328.858 -161.65 -340.313 -191.027C-346.041 -205.716 -349.133 -218.644 -349.413 -229.529C-349.692 -240.407 -347.163 -249.186 -341.714 -255.68Z" stroke="#79FFF9" stroke-opacity="0.17" stroke-width="1.88593"/>
<path opacity="0.0689655" d="M-309.43 -295.293C-303.436 -301.286 -294.911 -304.571 -284.05 -305.241C-273.181 -305.911 -260.033 -303.958 -244.901 -299.532C-214.637 -290.68 -176.631 -271.999 -133.426 -245.04C-47.0298 -191.13 59.9719 -104.233 167.082 2.87674C274.192 109.987 361.088 216.989 414.998 303.385C441.958 346.589 460.639 384.596 469.491 414.859C473.916 429.992 475.87 443.14 475.199 454.009C474.529 464.87 471.245 473.395 465.251 479.389C459.258 485.382 450.733 488.667 439.872 489.337C429.003 490.007 415.854 488.054 400.722 483.628C370.459 474.776 332.452 456.095 289.248 429.136C202.851 375.226 95.8496 288.329 -11.2605 181.219C-118.371 74.1091 -205.267 -32.8926 -259.177 -119.289C-286.136 -162.493 -304.818 -200.5 -313.669 -230.763C-318.095 -245.896 -320.048 -259.044 -319.378 -269.913C-318.708 -280.774 -315.424 -289.299 -309.43 -295.293Z" stroke="#79FFF9" stroke-opacity="0.17" stroke-width="1.88593"/>
<path opacity="0.103448" d="M-274.197 -331.958C-267.703 -337.407 -258.924 -339.936 -248.046 -339.657C-237.161 -339.377 -224.233 -336.285 -209.544 -330.557C-180.167 -319.102 -143.933 -297.179 -103.242 -266.557C-21.8736 -205.322 77.1474 -109.431 174.515 6.6069C271.882 122.645 349.122 236.813 395.297 327.579C418.388 372.969 433.686 412.459 439.866 443.378C442.956 458.839 443.756 472.107 442.141 482.876C440.527 493.638 436.512 501.844 430.019 507.293C423.525 512.741 414.746 515.27 403.868 514.991C392.982 514.712 380.054 511.619 365.366 505.892C335.989 494.436 299.755 472.513 259.064 441.891C177.696 380.656 78.6745 284.765 -18.6927 168.727C-116.06 52.6894 -193.3 -61.4787 -239.475 -152.245C-262.566 -197.634 -277.864 -237.125 -284.044 -268.044C-287.134 -283.505 -287.934 -296.773 -286.319 -307.542C-284.705 -318.304 -280.69 -326.51 -274.197 -331.958Z" stroke="#79FFF9" stroke-opacity="0.17" stroke-width="1.88593"/>
<path opacity="0.137931" d="M-236.284 -365.431C-229.341 -370.293 -220.375 -372.047 -209.563 -370.821C-198.743 -369.594 -186.133 -365.386 -171.999 -358.4C-143.733 -344.428 -109.548 -319.431 -71.6807 -285.379C4.04144 -217.285 94.3282 -113.128 181.212 10.954C268.095 135.036 335.09 255.502 373.179 349.947C392.226 397.176 404.024 437.85 407.486 469.19C409.217 484.861 408.857 498.149 406.31 508.736C403.764 519.316 399.049 527.141 392.106 532.003C385.162 536.865 376.196 538.619 365.384 537.393C354.564 536.166 341.954 531.959 327.821 524.972C299.554 511 265.369 486.003 227.502 451.951C151.78 383.857 61.493 279.701 -25.3903 155.618C-112.274 31.5359 -179.269 -88.9296 -217.358 -183.375C-236.405 -230.604 -248.203 -271.278 -251.664 -302.618C-253.395 -318.289 -253.036 -331.577 -250.489 -342.164C-247.943 -352.744 -243.228 -360.569 -236.284 -365.431Z" stroke="#79FFF9" stroke-opacity="0.17" stroke-width="1.88593"/>
<path opacity="0.172414" d="M-195.98 -395.488C-188.64 -399.726 -179.555 -400.692 -168.891 -398.528C-158.219 -396.363 -146.024 -391.073 -132.553 -382.881C-105.612 -366.499 -73.7351 -338.617 -38.9802 -301.394C30.5191 -226.96 111.384 -115.331 187.123 15.8518C262.861 147.034 319.102 272.88 348.814 370.286C363.673 418.996 371.881 460.542 372.598 492.066C372.956 507.828 371.44 521.034 367.98 531.359C364.522 541.676 359.143 549.06 351.802 553.299C344.461 557.537 335.376 558.503 324.712 556.339C314.04 554.174 301.845 548.884 288.374 540.692C261.433 524.31 229.557 496.428 194.802 459.205C125.302 384.771 44.4369 273.142 -31.3013 141.959C-107.04 10.7764 -163.281 -115.07 -192.993 -212.475C-207.851 -261.185 -216.059 -302.732 -216.776 -334.255C-217.135 -350.017 -215.619 -363.223 -212.158 -373.548C-208.7 -383.865 -203.321 -391.25 -195.98 -395.488Z" stroke="#79FFF9" stroke-opacity="0.17" stroke-width="1.88593"/>
<path opacity="0.206897" d="M-153.592 -421.936C-145.91 -425.518 -136.775 -425.689 -126.34 -422.603C-115.898 -419.516 -104.21 -413.183 -91.5045 -403.849C-66.0936 -385.181 -36.7684 -354.627 -5.38991 -314.517C57.3576 -234.308 128.186 -116.056 192.203 21.2284C256.22 158.513 301.279 288.782 322.388 388.406C332.945 438.226 337.501 480.33 335.467 511.795C334.451 527.529 331.79 540.552 327.442 550.536C323.098 560.513 317.096 567.401 309.414 570.983C301.731 574.565 292.597 574.736 282.162 571.651C271.719 568.563 260.032 562.231 247.326 552.896C221.915 534.228 192.59 503.674 161.212 463.564C98.4641 383.356 27.6357 265.103 -36.3811 127.819C-100.398 -9.46556 -145.457 -139.735 -166.567 -239.359C-177.123 -289.178 -181.679 -331.282 -179.646 -362.748C-178.629 -378.481 -175.968 -391.505 -171.62 -401.489C-167.276 -411.466 -161.274 -418.353 -153.592 -421.936Z" stroke="#79FFF9" stroke-opacity="0.17" stroke-width="1.88593"/>
<path opacity="0.241379" d="M-109.442 -444.606C-101.476 -447.505 -92.3622 -446.879 -82.2357 -442.896C-72.1018 -438.91 -61.011 -431.583 -49.167 -421.177C-25.4798 -400.365 1.0708 -367.371 28.8341 -324.679C84.3522 -239.307 144.605 -115.332 196.413 27.0099C248.221 169.351 281.755 303.052 294.101 404.137C300.275 454.687 301.144 497.028 296.377 528.196C293.993 543.781 290.206 556.523 285.005 566.09C279.808 575.651 273.229 581.989 265.263 584.888C257.298 587.787 248.184 587.161 238.057 583.178C227.923 579.192 216.833 571.865 204.989 561.459C181.301 540.647 154.751 507.653 126.987 464.961C71.4694 379.589 11.2168 255.614 -40.5912 113.272C-92.3992 -29.0691 -125.933 -162.77 -138.28 -263.854C-144.454 -314.405 -145.323 -356.745 -140.555 -387.914C-138.171 -403.499 -134.385 -416.241 -129.184 -425.808C-123.987 -435.368 -117.407 -441.707 -109.442 -444.606Z" stroke="#79FFF9" stroke-opacity="0.17" stroke-width="1.88593"/>
<path opacity="0.275862" d="M-63.8658 -463.353C-55.6782 -465.547 -46.6532 -464.129 -36.9123 -459.279C-27.1643 -454.425 -16.7544 -446.159 -5.86244 -434.76C15.9207 -411.963 39.4948 -376.781 63.4315 -331.831C111.298 -241.946 160.516 -113.191 199.721 33.1245C238.926 179.44 260.679 315.554 264.169 417.33C265.914 468.226 263.089 510.482 255.623 541.116C251.89 556.434 247.007 568.798 240.992 577.875C234.982 586.946 227.875 592.687 219.687 594.88C211.499 597.074 202.474 595.656 192.734 590.806C182.986 585.952 172.576 577.686 161.684 566.287C139.9 543.49 116.327 508.308 92.3898 463.358C44.5235 373.473 -4.69454 244.718 -43.8996 98.4024C-83.1046 -47.9127 -104.858 -184.027 -108.348 -285.803C-110.092 -336.699 -107.268 -378.955 -99.8016 -409.589C-96.0684 -424.907 -91.1862 -437.271 -85.1711 -446.348C-79.1603 -455.419 -72.0535 -461.16 -63.8658 -463.353Z" stroke="#79FFF9" stroke-opacity="0.17" stroke-width="1.88593"/>
<path opacity="0.310345" d="M-17.2109 -478.078C-8.86312 -479.55 0.0039331 -477.351 9.28501 -471.67C18.5728 -465.985 28.2228 -456.843 38.0798 -444.538C57.7931 -419.929 78.2111 -382.826 98.1392 -335.962C137.989 -242.246 175.798 -109.691 202.102 39.4839C228.405 188.659 238.213 326.151 232.819 427.845C230.121 478.699 223.625 520.547 213.517 550.415C208.463 565.349 202.522 577.24 195.738 585.759C188.96 594.271 181.38 599.37 173.032 600.842C164.684 602.314 155.817 600.115 146.536 594.434C137.248 588.749 127.598 579.607 117.741 567.303C98.0279 542.694 77.6099 505.591 57.6819 458.726C17.8318 365.011 -19.9772 232.456 -46.2808 83.2805C-72.5844 -65.8948 -82.392 -203.387 -76.9978 -305.08C-74.3002 -355.935 -67.8035 -397.783 -57.6958 -427.65C-52.6417 -442.584 -46.7005 -454.476 -39.9171 -462.994C-33.1387 -471.507 -25.5586 -476.606 -17.2109 -478.078Z" stroke="#79FFF9" stroke-opacity="0.17" stroke-width="1.88593"/>
<path opacity="0.344828" d="M30.1686 -488.696C38.6129 -489.435 47.2545 -486.471 56.0052 -480.003C64.7622 -473.53 73.5786 -463.582 82.3257 -450.465C99.8192 -424.231 116.926 -385.49 132.693 -337.067C164.224 -240.235 190.336 -104.889 203.538 46.0109C216.74 196.911 214.527 334.735 200.291 435.571C193.171 485.997 183.052 527.12 170.379 555.992C164.043 570.429 157.088 581.757 149.588 589.652C142.093 597.542 134.098 601.961 125.653 602.7C117.209 603.438 108.567 600.475 99.8168 594.007C91.0598 587.534 82.2434 577.586 73.4963 564.469C56.0028 538.235 38.8962 499.494 23.1285 451.071C-8.40204 354.239 -34.5143 218.893 -47.7163 67.9929C-60.9184 -82.9073 -58.7054 -220.731 -44.4685 -321.567C-37.349 -371.993 -27.2297 -413.116 -14.5573 -441.989C-8.22089 -456.425 -1.26589 -467.753 6.23412 -475.648C13.7287 -483.538 21.7244 -487.957 30.1686 -488.696Z" stroke="#79FFF9" stroke-opacity="0.17" stroke-width="1.88593"/>
<path opacity="0.37931" d="M77.9109 -495.163C86.3874 -495.163 94.7379 -491.457 102.891 -484.251C111.051 -477.04 118.967 -466.361 126.537 -452.532C141.678 -424.873 155.343 -384.789 166.83 -335.175C189.801 -235.964 204.018 -98.8575 204.018 52.6191C204.018 204.096 189.801 341.202 166.83 440.414C155.343 490.027 141.678 530.112 126.537 557.77C118.967 571.6 111.051 582.278 102.891 589.49C94.7379 596.696 86.3874 600.401 77.9109 600.401C69.4344 600.401 61.084 596.696 52.9303 589.49C44.7708 582.278 36.8549 571.6 29.2844 557.77C14.1438 530.112 0.478874 490.027 -11.0084 440.414C-33.9796 341.202 -48.1963 204.096 -48.1963 52.6191C-48.1963 -98.8575 -33.9796 -235.964 -11.0084 -335.175C0.478874 -384.789 14.1438 -424.873 29.2844 -452.532C36.8549 -466.361 44.7708 -477.04 52.9303 -484.251C61.084 -491.457 69.4344 -495.163 77.9109 -495.163Z" stroke="#79FFF9" stroke-opacity="0.17" stroke-width="1.88593"/>
<path opacity="0.413793" d="M125.653 -497.461C134.097 -496.722 142.093 -492.303 149.588 -484.414C157.088 -476.519 164.043 -465.191 170.379 -450.754C183.051 -421.881 193.171 -380.758 200.29 -330.332C214.527 -229.497 216.74 -91.6726 203.538 59.2275C190.336 210.128 164.224 345.473 132.693 442.305C116.926 490.729 99.819 529.47 82.3254 555.703C73.5784 568.82 64.762 578.769 56.0049 585.241C47.2543 591.709 38.6127 594.673 30.1684 593.934C21.7241 593.196 13.7285 588.776 6.2339 580.887C-1.26611 572.992 -8.22111 561.664 -14.5575 547.227C-27.2299 518.354 -37.3492 477.231 -44.4688 426.806C-58.7056 325.97 -60.9186 188.146 -47.7165 37.2456C-34.5145 -113.655 -8.40226 -249 23.1283 -345.832C38.896 -394.255 56.0025 -432.997 73.4961 -459.23C82.2431 -472.347 91.0596 -482.295 99.8166 -488.768C108.567 -495.236 117.209 -498.2 125.653 -497.461Z" stroke="#79FFF9" stroke-opacity="0.17" stroke-width="1.88593"/>
<path opacity="0.448276" d="M173.032 -495.605C181.38 -494.133 188.96 -489.034 195.739 -480.521C202.522 -472.003 208.463 -460.112 213.517 -445.177C223.625 -415.31 230.122 -373.462 232.819 -322.607C238.214 -220.914 228.406 -83.4219 202.102 65.7534C175.799 214.929 137.99 347.484 98.1397 441.199C78.2117 488.064 57.7937 525.166 38.0803 549.775C28.2233 562.08 18.5734 571.222 9.28556 576.907C0.00448656 582.588 -8.86257 584.787 -17.2103 583.315C-25.5581 581.843 -33.1381 576.744 -39.9166 568.231C-46.6999 559.713 -52.6412 547.822 -57.6952 532.888C-67.803 503.02 -74.2997 461.172 -76.9972 410.318C-82.3915 308.624 -72.5839 171.132 -46.2802 21.9568C-19.9766 -127.218 17.8324 -259.773 57.6824 -353.489C77.6105 -400.353 98.0285 -437.456 117.742 -462.065C127.599 -474.37 137.249 -483.512 146.537 -489.197C155.818 -494.878 164.685 -497.077 173.032 -495.605Z" stroke="#79FFF9" stroke-opacity="0.17" stroke-width="1.88593"/>
<path opacity="0.482759" d="M219.687 -489.641C227.875 -487.447 234.982 -481.706 240.992 -472.635C247.008 -463.558 251.89 -451.194 255.623 -435.877C263.089 -405.242 265.914 -362.986 264.169 -312.091C260.679 -210.314 238.926 -74.1999 199.721 72.1152C160.516 218.43 111.298 347.186 63.4316 437.071C39.4949 482.021 15.9209 517.203 -5.86232 540C-16.7543 551.399 -27.1642 559.665 -36.9122 564.519C-46.6531 569.369 -55.678 570.787 -63.8657 568.593C-72.0534 566.399 -79.1602 560.659 -85.171 551.588C-91.1861 542.51 -96.0683 530.147 -99.8015 514.829C-107.268 484.194 -110.092 441.939 -108.347 391.043C-104.858 289.267 -83.1045 153.152 -43.8994 6.83732C-4.69441 -139.478 44.5237 -268.233 92.3899 -358.119C116.327 -403.068 139.901 -438.25 161.684 -461.047C172.576 -472.446 182.986 -480.712 192.734 -485.566C202.475 -490.416 211.5 -491.835 219.687 -489.641Z" stroke="#79FFF9" stroke-opacity="0.17" stroke-width="1.88593"/>
<path opacity="0.517241" d="M265.263 -479.653C273.229 -476.754 279.808 -470.415 285.005 -460.855C290.206 -451.288 293.993 -438.546 296.377 -422.961C301.144 -391.792 300.275 -349.451 294.101 -298.901C281.755 -197.816 248.221 -64.116 196.413 78.2254C144.605 220.567 84.3522 344.542 28.8341 429.914C1.07082 472.606 -25.4798 505.6 -49.167 526.412C-61.011 536.818 -72.1017 544.146 -82.2357 548.131C-92.3622 552.114 -101.476 552.74 -109.442 549.841C-117.407 546.942 -123.986 540.604 -129.184 531.043C-134.385 521.476 -138.171 508.734 -140.555 493.149C-145.323 461.981 -144.454 419.64 -138.28 369.09C-125.933 268.005 -92.3992 134.304 -40.5912 -8.03703C11.2169 -150.378 71.4694 -274.354 126.987 -359.726C154.751 -402.418 181.301 -435.412 204.989 -456.224C216.833 -466.63 227.923 -473.957 238.057 -477.943C248.184 -481.926 257.298 -482.552 265.263 -479.653Z" stroke="#79FFF9" stroke-opacity="0.17" stroke-width="1.88593"/>
<path opacity="0.551724" d="M309.414 -465.745C317.096 -462.162 323.098 -455.275 327.442 -445.298C331.79 -435.314 334.451 -422.29 335.467 -406.557C337.501 -375.092 332.945 -332.987 322.388 -283.168C301.279 -183.544 256.22 -53.2747 192.203 84.0097C128.186 221.294 57.3576 339.547 -5.38991 419.755C-36.7684 459.865 -66.0936 490.419 -91.5045 509.087C-104.21 518.422 -115.898 524.754 -126.34 527.842C-136.775 530.927 -145.91 530.756 -153.592 527.174C-161.274 523.591 -167.276 516.704 -171.62 506.727C-175.968 496.743 -178.629 483.72 -179.646 467.986C-181.679 436.521 -177.123 394.416 -166.567 344.597C-145.457 244.973 -100.398 114.704 -36.3811 -22.5807C27.6357 -159.865 98.4641 -278.118 161.212 -358.326C192.59 -398.436 221.915 -428.99 247.326 -447.658C260.032 -456.992 271.719 -463.325 282.162 -466.413C292.597 -469.498 301.731 -469.327 309.414 -465.745Z" stroke="#79FFF9" stroke-opacity="0.17" stroke-width="1.88593"/>
<path opacity="0.586207" d="M351.802 -448.061C359.143 -443.823 364.522 -436.438 367.98 -426.121C371.441 -415.796 372.957 -402.59 372.598 -386.828C371.881 -355.305 363.673 -313.758 348.815 -265.048C319.102 -167.643 262.861 -41.7965 187.123 89.3861C111.385 220.569 30.5193 332.198 -38.98 406.632C-73.735 443.855 -105.612 471.737 -132.553 488.119C-146.024 496.311 -158.219 501.601 -168.891 503.766C-179.555 505.93 -188.639 504.964 -195.98 500.726C-203.321 496.488 -208.7 489.103 -212.158 478.786C-215.619 468.461 -217.135 455.255 -216.776 439.493C-216.059 407.97 -207.851 366.423 -192.993 317.713C-163.281 220.308 -107.039 94.4614 -31.3012 -36.7211C44.4371 -167.904 125.302 -279.533 194.802 -353.967C229.557 -391.19 261.433 -419.072 288.374 -435.454C301.846 -443.646 314.04 -448.936 324.712 -451.101C335.376 -453.265 344.461 -452.299 351.802 -448.061Z" stroke="#79FFF9" stroke-opacity="0.17" stroke-width="1.88593"/>
<path opacity="0.62069" d="M392.106 -426.765C399.049 -421.903 403.764 -414.078 406.31 -403.498C408.858 -392.911 409.217 -379.623 407.486 -363.952C404.024 -332.612 392.226 -291.938 373.179 -244.709C335.091 -150.264 268.095 -29.7982 181.212 94.2841C94.3284 218.366 4.04168 322.523 -71.6805 390.617C-109.547 424.669 -143.733 449.666 -171.999 463.638C-186.133 470.625 -198.742 474.832 -209.563 476.059C-220.375 477.285 -229.341 475.531 -236.284 470.669C-243.228 465.807 -247.942 457.982 -250.488 447.402C-253.036 436.815 -253.395 423.527 -251.664 407.856C-248.203 376.516 -236.405 335.842 -217.357 288.613C-179.269 194.168 -112.273 73.7022 -25.3901 -50.3801C61.4933 -174.462 151.78 -278.619 227.502 -346.713C265.369 -380.765 299.554 -405.762 327.821 -419.734C341.955 -426.721 354.564 -430.928 365.384 -432.155C376.196 -433.381 385.162 -431.627 392.106 -426.765Z" stroke="#79FFF9" stroke-opacity="0.17" stroke-width="1.88593"/>
<path opacity="0.655172" d="M430.018 -402.056C436.512 -396.607 440.527 -388.401 442.141 -377.64C443.756 -366.87 442.956 -353.602 439.866 -338.142C433.686 -307.222 418.388 -267.732 395.297 -222.342C349.122 -131.576 271.882 -17.4078 174.515 98.63C77.1474 214.668 -21.8737 310.559 -103.242 371.794C-143.933 402.416 -180.167 424.339 -209.544 435.794C-224.233 441.522 -237.161 444.614 -248.047 444.894C-258.925 445.173 -267.703 442.644 -274.197 437.195C-280.69 431.747 -284.705 423.541 -286.319 412.779C-287.934 402.01 -287.134 388.742 -284.044 373.281C-277.864 342.362 -262.566 302.871 -239.475 257.481C-193.3 166.716 -116.06 52.5475 -18.6928 -63.4903C78.6745 -179.528 177.695 -275.419 259.064 -336.654C299.755 -367.276 335.989 -389.199 365.366 -400.655C380.054 -406.382 392.982 -409.475 403.868 -409.754C414.746 -410.033 423.525 -407.504 430.018 -402.056Z" stroke="#79FFF9" stroke-opacity="0.17" stroke-width="1.88593"/>
<path opacity="0.689655" d="M465.251 -374.152C471.245 -368.158 474.53 -359.633 475.2 -348.772C475.87 -337.903 473.916 -324.755 469.491 -309.623C460.639 -279.359 441.958 -241.352 414.999 -198.148C361.088 -111.752 274.192 -4.75 167.082 102.36C59.972 209.47 -47.0297 296.366 -133.426 350.277C-176.63 377.236 -214.637 395.917 -244.901 404.769C-260.033 409.194 -273.181 411.148 -284.05 410.478C-294.911 409.808 -303.436 406.523 -309.43 400.529C-315.423 394.536 -318.708 386.011 -319.378 375.15C-320.048 364.281 -318.095 351.133 -313.669 336C-304.817 305.737 -286.136 267.73 -259.177 224.526C-205.267 138.129 -118.37 31.1277 -11.2604 -75.9824C95.8497 -183.092 202.851 -269.989 289.248 -323.899C332.452 -350.858 370.459 -369.539 400.722 -378.391C415.855 -382.817 429.003 -384.77 439.872 -384.1C450.733 -383.43 459.258 -380.145 465.251 -374.152Z" stroke="#79FFF9" stroke-opacity="0.17" stroke-width="1.88593"/>
<path opacity="0.724138" d="M497.536 -343.298C502.985 -336.805 505.514 -328.026 505.235 -317.148C504.955 -306.262 501.863 -293.334 496.135 -278.645C484.68 -249.268 462.757 -213.034 432.135 -172.344C370.9 -90.975 275.009 8.04601 158.971 105.413C42.9333 202.781 -71.2347 280.02 -162.001 326.195C-207.391 349.286 -246.881 364.584 -277.8 370.764C-293.261 373.854 -306.529 374.655 -317.298 373.039C-328.06 371.425 -336.266 367.411 -341.715 360.917C-347.163 354.424 -349.692 345.645 -349.413 334.767C-349.134 323.881 -346.041 310.953 -340.314 296.264C-328.858 266.887 -306.935 230.654 -276.313 189.963C-215.078 108.594 -119.187 9.57311 -3.14917 -87.7941C112.889 -185.161 227.057 -262.401 317.823 -308.576C363.212 -331.667 402.703 -346.965 433.622 -353.145C449.083 -356.235 462.351 -357.036 473.12 -355.42C483.882 -353.806 492.088 -349.791 497.536 -343.298Z" stroke="#79FFF9" stroke-opacity="0.17" stroke-width="1.88593"/>
<path opacity="0.758621" d="M526.628 -309.768C531.49 -302.825 533.244 -293.859 532.018 -283.047C530.791 -272.227 526.584 -259.617 519.597 -245.483C505.625 -217.217 480.628 -183.032 446.576 -145.165C378.482 -69.4425 274.325 20.8442 150.243 107.728C26.1608 194.611 -94.3047 261.606 -188.75 299.695C-235.979 318.742 -276.653 330.54 -307.993 334.002C-323.664 335.733 -336.952 335.373 -347.539 332.826C-358.119 330.28 -365.944 325.565 -370.806 318.622C-375.668 311.678 -377.422 302.712 -376.196 291.9C-374.969 281.08 -370.762 268.471 -363.775 254.337C-349.803 226.07 -324.806 191.885 -290.754 154.018C-222.66 78.2958 -118.503 -11.9909 5.57891 -98.8743C129.661 -185.758 250.127 -252.753 344.572 -290.842C391.801 -309.889 432.475 -321.687 463.815 -325.148C479.486 -326.879 492.774 -326.52 503.361 -323.972C513.941 -321.427 521.766 -316.712 526.628 -309.768Z" stroke="#79FFF9" stroke-opacity="0.17" stroke-width="1.88593"/>
<path opacity="0.793103" d="M552.304 -273.845C556.542 -266.504 557.508 -257.42 555.345 -246.755C553.179 -236.083 547.889 -223.889 539.698 -210.418C523.315 -183.476 495.433 -151.6 458.211 -116.845C383.777 -47.3456 272.147 33.5197 140.965 109.258C9.78202 184.996 -116.064 241.237 -213.469 270.95C-262.179 285.808 -303.726 294.016 -335.249 294.733C-351.011 295.092 -364.217 293.576 -374.542 290.115C-384.86 286.657 -392.244 281.278 -396.482 273.937C-400.721 266.596 -401.687 257.512 -399.523 246.847C-397.357 236.175 -392.067 223.981 -383.876 210.51C-367.493 183.568 -339.611 151.692 -302.389 116.937C-227.955 47.4375 -116.325 -33.4278 14.8574 -109.166C146.04 -184.904 271.886 -241.146 369.291 -270.858C418.001 -285.716 459.548 -293.924 491.071 -294.641C506.833 -295 520.039 -293.484 530.364 -290.023C540.682 -286.565 548.066 -281.186 552.304 -273.845Z" stroke="#79FFF9" stroke-opacity="0.17" stroke-width="1.88593"/>
<path opacity="0.827586" d="M574.37 -235.838C577.952 -228.156 578.123 -219.022 575.038 -208.586C571.951 -198.144 565.618 -186.457 556.283 -173.751C537.615 -148.34 507.061 -119.015 466.951 -87.6361C386.743 -24.8886 268.49 45.9398 131.206 109.957C-6.07842 173.973 -136.347 219.032 -235.972 240.142C-285.791 250.699 -327.895 255.254 -359.361 253.221C-375.094 252.205 -388.118 249.543 -398.102 245.196C-408.079 240.852 -414.966 234.85 -418.549 227.167C-422.131 219.485 -422.301 210.351 -419.216 199.916C-416.129 189.473 -409.796 177.786 -400.462 165.08C-381.794 139.669 -351.24 110.344 -311.129 78.9655C-230.921 16.218 -112.669 -54.6105 24.6156 -118.627C161.9 -182.644 292.169 -227.703 391.793 -248.813C441.613 -259.369 483.717 -263.925 515.182 -261.892C530.916 -260.875 543.939 -258.214 553.923 -253.867C563.9 -249.522 570.788 -243.52 574.37 -235.838Z" stroke="#79FFF9" stroke-opacity="0.17" stroke-width="1.88593"/>
<path opacity="0.862069" d="M592.658 -196.068C595.557 -188.103 594.93 -178.988 590.948 -168.862C586.962 -158.728 579.635 -147.637 569.228 -135.793C548.416 -112.106 515.423 -85.5554 472.731 -57.7921C387.359 -2.27405 263.383 57.9785 121.042 109.787C-21.2995 161.595 -155 195.128 -256.085 207.475C-306.635 213.649 -348.976 214.518 -380.145 209.75C-395.729 207.366 -408.471 203.58 -418.039 198.379C-427.599 193.182 -433.937 186.602 -436.836 178.637C-439.735 170.672 -439.109 161.558 -435.126 151.431C-431.141 141.297 -423.813 130.206 -413.407 118.362C-392.595 94.6751 -359.602 68.1245 -316.909 40.3612C-231.538 -15.1569 -107.562 -75.4094 34.7795 -127.217C177.121 -179.025 310.821 -212.559 411.906 -224.906C462.456 -231.08 504.797 -231.949 535.966 -227.181C551.551 -224.797 564.293 -221.011 573.86 -215.81C583.42 -210.613 589.758 -204.033 592.658 -196.068Z" stroke="#79FFF9" stroke-opacity="0.17" stroke-width="1.88593"/>
<path opacity="0.896552" d="M607.028 -154.873C609.222 -146.686 607.804 -137.661 602.953 -127.92C598.1 -118.172 589.834 -107.762 578.435 -96.8699C555.637 -75.0868 520.455 -51.5128 475.506 -27.576C385.62 20.2902 256.865 69.5083 110.55 108.713C-35.7653 147.918 -171.88 169.672 -273.656 173.161C-324.552 174.906 -366.807 172.082 -397.442 164.615C-412.76 160.882 -425.123 156 -434.201 149.985C-443.272 143.974 -449.012 136.867 -451.206 128.68C-453.4 120.492 -451.982 111.467 -447.132 101.726C-442.278 91.9781 -434.012 81.5681 -422.613 70.6762C-399.816 48.893 -364.634 25.319 -319.684 1.38224C-229.798 -46.484 -101.043 -95.702 45.2719 -134.907C191.587 -174.112 327.701 -195.866 429.478 -199.355C480.373 -201.1 522.629 -198.275 553.264 -190.809C568.581 -187.076 580.945 -182.194 590.022 -176.179C599.093 -170.168 604.834 -163.061 607.028 -154.873Z" stroke="#79FFF9" stroke-opacity="0.17" stroke-width="1.88593"/>
<path opacity="0.931035" d="M617.371 -112.607C618.843 -104.259 616.643 -95.3923 610.963 -86.1112C605.278 -76.8234 596.136 -67.1735 583.831 -57.3165C559.222 -37.6031 522.119 -17.1851 475.255 2.74293C381.539 42.5929 248.984 80.402 99.809 106.706C-49.3662 133.009 -186.859 142.817 -288.552 137.423C-339.406 134.725 -381.255 128.228 -411.122 118.121C-426.056 113.067 -437.947 107.125 -446.466 100.342C-454.978 93.5635 -460.078 85.9834 -461.549 77.6357C-463.021 69.2879 -460.822 60.4209 -455.141 51.1398C-449.456 41.852 -440.315 32.202 -428.01 22.345C-403.401 2.63165 -366.298 -17.7863 -319.433 -37.7144C-225.718 -77.5644 -93.1628 -115.373 56.0125 -141.677C205.188 -167.981 342.68 -177.788 444.373 -172.394C495.227 -169.696 537.076 -163.2 566.943 -153.092C581.877 -148.038 593.768 -142.097 602.287 -135.313C610.8 -128.535 615.899 -120.955 617.371 -112.607Z" stroke="#79FFF9" stroke-opacity="0.17" stroke-width="1.88593"/>
<path opacity="0.965517" d="M623.609 -69.6074C624.347 -61.1631 621.383 -52.5215 614.915 -43.7709C608.443 -35.0138 598.495 -26.1974 585.377 -17.4504C559.144 0.0431762 520.403 17.1497 471.98 32.9174C375.148 64.448 239.802 90.5602 88.9018 103.762C-61.9983 116.964 -199.822 114.751 -300.658 100.514C-351.084 93.395 -392.207 83.2756 -421.08 70.6032C-435.516 64.2668 -446.844 57.3118 -454.739 49.8118C-462.629 42.3173 -467.048 34.3216 -467.787 25.8773C-468.526 17.433 -465.562 8.79144 -459.094 0.0407775C-452.621 -8.71625 -442.673 -17.5327 -429.556 -26.2797C-403.322 -43.7733 -364.581 -60.8798 -316.158 -76.6475C-219.326 -108.178 -83.9803 -134.29 66.9199 -147.492C217.82 -160.694 355.644 -158.481 456.48 -144.245C506.906 -137.125 548.029 -127.006 576.901 -114.333C591.338 -107.997 602.666 -101.042 610.561 -93.5419C618.45 -86.0473 622.87 -78.0517 623.609 -69.6074Z" stroke="#79FFF9" stroke-opacity="0.17" stroke-width="1.88593"/>
<path d="M625.693 -26.2467C625.693 -17.7702 621.987 -9.41978 614.781 -1.26616C607.57 6.89342 596.891 14.8092 583.062 22.3798C555.403 37.5204 515.319 51.1853 465.705 62.6726C366.494 85.6437 229.387 99.8604 77.9108 99.8604C-73.5657 99.8604 -210.672 85.6437 -309.884 62.6726C-359.497 51.1853 -399.582 37.5204 -427.24 22.3798C-441.07 14.8092 -451.748 6.89342 -458.96 -1.26616C-466.166 -9.41978 -469.871 -17.7702 -469.871 -26.2467C-469.871 -34.7233 -466.166 -43.0737 -458.96 -51.2273C-451.748 -59.3869 -441.07 -67.3027 -427.24 -74.8732C-399.582 -90.0138 -359.497 -103.679 -309.884 -115.166C-210.672 -138.137 -73.5657 -152.354 77.9108 -152.354C229.387 -152.354 366.494 -138.137 465.705 -115.166C515.319 -103.679 555.403 -90.0138 583.062 -74.8732C596.891 -67.3027 607.57 -59.3869 614.781 -51.2273C621.987 -43.0737 625.693 -34.7233 625.693 -26.2467Z" stroke="#79FFF9" stroke-opacity="0.17" stroke-width="1.88593"/>
</svg>
