<?xml version="1.0"?>
<svg xmlns="http://www.w3.org/2000/svg" xmlns:xlink="http://www.w3.org/1999/xlink" xmlns:svgjs="http://svgjs.com/svgjs" version="1.1" width="512" height="512" x="0" y="0" viewBox="0 0 512 512" style="enable-background:new 0 0 512 512" xml:space="preserve"><g><path xmlns="http://www.w3.org/2000/svg" d="m497 242.143h-2.943v-46.143c0-8.284-6.716-15-15-15h-48v-84c0-8.284-6.716-15-15-15h-79.074l-.009-67.021c-.012-8.276-6.724-14.979-15-14.979h-131.948c-8.276 0-14.988 6.703-15 14.979l-.039 28.409-90.44 52.309c-4.635 2.681-7.49 7.629-7.49 12.984v43.27h-48c-8.284 0-15 6.716-15 15v75.238c-7.843.49-14.057 6.988-14.057 14.954v30.004c0 6.195 3.809 11.753 9.586 13.989l67.93 26.29c.765 1.915 1.558 3.813 2.379 5.689l-29.334 66.362c-2.51 5.678-1.263 12.316 3.138 16.696l42.625 42.423c4.37 4.348 10.955 5.58 16.599 3.108l67.517-29.568c1.566.661 3.142 1.301 4.725 1.92l26.732 68.404c2.249 5.753 7.794 9.54 13.971 9.54h60.28c6.177 0 11.723-3.787 13.971-9.541l27.15-69.485c1.063-.435 2.123-.879 3.179-1.334l68.641 30.055c5.646 2.472 12.229 1.24 16.598-3.108l42.625-42.423c4.4-4.38 5.648-11.019 3.137-16.697l-30.506-69.001c.28-.665.556-1.33.827-1.996l70.646-27.348c5.777-2.236 9.585-7.793 9.585-13.988v-29.99c-.001-8.286-6.717-15.001-15.001-15.001zm-189.963-.143h-102.074l.042-30.5h101.989zm0-60.5h-102.074l.042-30.5h101.989zm0-60.5h-102.074l.042-30.5h101.989zm19.625 151.143c-6.976 33.056-36.52 57.957-71.809 57.957s-64.833-24.901-71.81-57.957zm104.395-61.143h33v31h-33zm-94-99h64v130h-64zm-132.052-82h101.989l.042 30.5h-102.073zm-97.948 87.335 67.965-39.31-.059 163.975h-67.906v-75.048zm-63 64.617h33v60.048h-33zm437.943 94.903-67.243 26.03c-4.032 1.561-7.194 4.785-8.676 8.846-1.512 4.142-3.243 8.319-5.145 12.417-1.819 3.918-1.861 8.431-.114 12.382l29.021 65.64-28.08 27.946-65.393-28.633c-3.979-1.742-8.517-1.673-12.441.187-4.38 2.076-8.891 3.969-13.405 5.627-4.033 1.48-7.238 4.62-8.801 8.622l-25.82 66.081h-39.794l-25.455-65.134c-1.594-4.081-4.894-7.26-9.03-8.703-5.015-1.75-10.003-3.774-14.825-6.018-3.905-1.816-8.402-1.868-12.345-.14l-64.211 28.12-28.079-27.946 27.902-63.123c1.781-4.028 1.701-8.636-.218-12.601-2.426-5.011-4.631-10.278-6.555-15.655-1.467-4.103-4.646-7.364-8.709-8.937l-64.584-24.995v-4.725h122.57c7.313 49.688 50.395 87.957 102.282 87.957s94.969-38.27 102.282-87.957h124.866z" fill="#ffffff" data-original="#000000"/></g></svg>
