<?xml version="1.0"?>
<svg xmlns="http://www.w3.org/2000/svg" xmlns:xlink="http://www.w3.org/1999/xlink" xmlns:svgjs="http://svgjs.com/svgjs" version="1.1" width="512" height="512" x="0" y="0" viewBox="0 0 512 512" style="enable-background:new 0 0 512 512" xml:space="preserve" class=""><g><path xmlns="http://www.w3.org/2000/svg" d="m181 122h30v30h-30zm0 0" fill="#ffffff" data-original="#000000" class=""/><path xmlns="http://www.w3.org/2000/svg" d="m181 182h30v30h-30zm0 0" fill="#ffffff" data-original="#000000" class=""/><path xmlns="http://www.w3.org/2000/svg" d="m301 272h30v30h-30zm0 0" fill="#ffffff" data-original="#000000" class=""/><path xmlns="http://www.w3.org/2000/svg" d="m301 332h30v30h-30zm0 0" fill="#ffffff" data-original="#000000" class=""/><path xmlns="http://www.w3.org/2000/svg" d="m482 334.578125v-98.792969l-60-60c0-9.816406 0-73.257812 0-83.785156h-30v19.152344l-91 30v46.578125l-30-15v-90l-60-30v-52.730469h-30v52.730469l-60 30v59.929687l-61 30v99.339844h-30v62.578125c-17.460938 6.195313-30 22.867187-30 42.421875s12.539062 36.226562 30 42.421875v62.578125h-30v30h512v-30h-30v-32.578125c17.460938-6.195313 30-22.867187 30-42.421875v-30c0-19.554688-12.539062-36.226562-30-42.421875zm-121-83.308594v230.730469h-30v-30h-30v30h-30v-32.578125c17.460938-6.195313 30-22.867187 30-42.421875s-12.539062-36.226562-30-42.421875v-158.308594zm-105 140.730469c8.269531 0 15 6.730469 15 15s-6.730469 15-15 15-15-6.730469-15-15 6.730469-15 15-15zm-166-150h61v-30h-61v-20.660156l61-30v-60.070313l45-22.5 45 22.5v263.3125c-17.460938 6.191407-30 22.863281-30 42.417969s12.539062 36.230469 30 42.421875v32.578125h-60v-210h-91zm61 150h-63.578125c1.664063-4.695312 2.578125-9.742188 2.578125-15s-.914062-10.3125-2.578125-15.007812h63.578125zm-91-90h91v30h-91zm-15.003906 60h.007812c8.269532 0 14.996094 6.730469 14.996094 15s-6.730469 15-15 15-15-6.730469-15-15 6.726562-15 14.996094-15zm15.003906 59.988281 91 .003907v60.007812h-31v-30h-30v30h-30zm331 60.011719v-249.269531l-60-30v-39.882813l61-20.109375v45.476563l60 60v23.785156h-30v30h30v32.578125c-17.460938 6.195313-30 22.867187-30 42.421875v30c0 19.554688 12.539062 36.226562 30 42.421875v32.578125zm91-75c0 8.269531-6.730469 15-15 15s-15-6.730469-15-15v-30c0-8.269531 6.730469-15 15-15s15 6.730469 15 15zm0 0" fill="#ffffff" data-original="#000000" class=""/></g></svg>
