<svg width="640" height="448" viewBox="0 0 640 448" fill="none" xmlns="http://www.w3.org/2000/svg">
<path d="M626.2 70.0487C618.833 42.6575 597.236 21.0653 569.849 13.6897C519.816 0 319.68 0 319.68 0C319.68 0 119.551 0 69.518 13.1707C42.6575 20.5385 20.5346 42.6614 13.1668 70.0487C0 120.078 0 223.832 0 223.832C0 223.832 0 328.109 13.1668 377.615C20.5424 405.003 42.1307 426.595 69.5219 433.97C120.078 447.664 319.687 447.664 319.687 447.664C319.687 447.664 519.816 447.664 569.849 434.493C597.24 427.122 618.833 405.529 626.208 378.142C639.371 328.109 639.371 224.359 639.371 224.359C639.371 224.359 639.898 120.078 626.2 70.0487V70.0487ZM255.961 319.684V127.98L422.384 223.832L255.961 319.684Z" fill="white"/>
</svg>
