<svg width="16" height="12" viewBox="0 0 16 12" fill="none" xmlns="http://www.w3.org/2000/svg">
<path d="M15.3337 0.0067038C14.6952 0.457022 13.9884 0.801443 13.2403 1.0267C12.8388 0.565044 12.3052 0.237832 11.7117 0.0893212C11.1181 -0.0591893 10.4933 -0.0218324 9.92171 0.196339C9.3501 0.414511 8.85928 0.802971 8.51564 1.30918C8.172 1.81539 7.99212 2.41493 8.00032 3.0267V3.69337C6.82875 3.72375 5.66784 3.46391 4.621 2.937C3.57415 2.41009 2.67387 1.63246 2.00032 0.67337C2.00032 0.67337 -0.666341 6.67337 5.33366 9.34004C3.96068 10.272 2.3251 10.7393 0.666992 10.6734C6.66699 14.0067 14.0003 10.6734 14.0003 3.0067C13.9997 2.82101 13.9819 2.63577 13.947 2.45337C14.6274 1.78237 15.1075 0.935179 15.3337 0.0067038Z" fill="white"/>
</svg>
