<svg width="480" height="480" viewBox="0 0 480 480" fill="none" xmlns="http://www.w3.org/2000/svg">
<path d="M240 0C192.533 0 146.131 14.0758 106.663 40.4473C67.1955 66.8188 36.4341 104.302 18.269 148.156C0.103991 192.01 -4.64881 240.266 4.61164 286.822C13.8721 333.377 36.7299 376.141 70.2945 409.706C103.859 443.27 146.623 466.128 193.178 475.388C239.734 484.649 287.99 479.896 331.844 461.731C375.698 443.566 413.181 412.805 439.553 373.337C465.924 333.869 480 287.468 480 240C479.977 176.355 454.684 115.324 409.68 70.3198C364.677 25.3161 303.645 0.023027 240 0V0ZM383.68 138.56L336.96 350.56C336.497 352.591 335.533 354.473 334.156 356.036C332.779 357.599 331.033 358.793 329.077 359.509C327.121 360.224 325.017 360.439 322.956 360.134C320.896 359.828 318.945 359.012 317.28 357.76L250.24 307.04L213.6 343.04C212.864 343.768 211.922 344.253 210.902 344.431C209.882 344.609 208.832 344.472 207.893 344.037C206.953 343.602 206.169 342.89 205.645 341.997C205.121 341.104 204.882 340.072 204.96 339.04L209.44 277.76L328.48 168.16C328.897 167.803 329.165 167.302 329.229 166.756C329.293 166.211 329.149 165.661 328.826 165.217C328.503 164.773 328.025 164.467 327.486 164.36C326.948 164.253 326.388 164.353 325.92 164.64L168.64 260.8L102.4 238.24C100.565 237.634 98.9626 236.473 97.8159 234.916C96.6692 233.36 96.0344 231.486 95.9992 229.553C95.9641 227.621 96.5304 225.725 97.6198 224.128C98.7091 222.531 100.268 221.312 102.08 220.64L362.88 120.8C365.495 119.798 368.331 119.521 371.09 119.995C373.849 120.47 376.429 121.68 378.558 123.498C380.687 125.316 382.287 127.675 383.188 130.326C384.09 132.976 384.26 135.821 383.68 138.56V138.56Z" fill="white"/>
</svg>
